<mxfile host="Electron" agent="Mozilla/5.0 (Windows NT 10.0; Win64; x64) AppleWebKit/537.36 (KHTML, like Gecko) draw.io/27.0.9 Chrome/134.0.6998.205 Electron/35.4.0 Safari/537.36" version="27.0.9">
  <diagram name="Page-1" id="rKqSOeDQ3wczsE7s2yC0">
    <mxGraphModel dx="2837" dy="1047" grid="1" gridSize="10" guides="1" tooltips="1" connect="1" arrows="1" fold="1" page="1" pageScale="1" pageWidth="1100" pageHeight="850" math="0" shadow="0">
      <root>
        <mxCell id="0" />
        <mxCell id="1" parent="0" />
        <mxCell id="xRJNYcHZeP18kAEXK0vb-7" value="" style="shape=image;verticalLabelPosition=bottom;labelBackgroundColor=default;verticalAlign=top;aspect=fixed;imageAspect=0;image=data:image/png,iVBORw0KGgoAAAANSUhEUgAAB3QAAAN9CAIAAADkJN+mAAAABmJLR0QA/wD/AP+gvaeTAAAgAElEQVR4nOzdeVxU1f/H8XNnYQdxQdwQA8ktzSWXXHIJMywXMpf8lmapWe5mZZvf+NqmmZnfbHH9ZmUqLrkUlWiJWmoLqampoD8VcAEUWR2Ymfv7Y2wkGIa5MMwCr+eDh4/hnnPvPcyZGeQ9nzlXkmVZAAAAAAAAAACghMrZAwAAAAAAAAAAuB/CZQAAAAAAAACAYoTLAAAAAAAAAADFCJcBAAAAAAAAAIoRLgMAAAAAAAAAFCNcBgAAAAAAAAAoRrgMAAAAAAAAAFCMcBkAAAAAAAAAoBjhMgAAAAAAAABAMcJlAAAAAAAAAIBihMsAAAAAAAAAAMUIlwEAAAAAAAAAihEuAwAAAAAAAAAUI1wGAAAAAAAAAChGuAwAAAAAAAAAUIxwGQAAAAAAAACgGOEyAAAAAAAAAEAxwmUAAAAAAAAAgGKEywAAAAAAAAAAxQiXAQAAAAAAAACKES4DAAAAAAAAABQjXAYAAAAAAAAAKEa4DAAAAAAAAABQjHAZAAAAAAAAAKAY4TIAAAAAAAAAQDHCZQAAAAAAAACAYoTLAAAAAAAAAADFCJcBAAAAAAAAAIoRLgMAAAAAAAAAFCNcBgAAAAAAAAAoRrgMAAAAAAAAAFCMcBkAAAAAAAAAoBjhMgAAAAAAAABAMcJlAAAAAAAAAIBihMsAAAAAAAAAAMUIlwEAAAAAAAAAihEuAwAAAAAAAAAUI1wGAAAAAAAAAChGuAwAAAAAAAAAUIxwGQAAAAAAAACgGOEyAAAAAAAAAEAxwmUAAAAAAAAAgGKEywAAAAAAAAAAxQiXAQAAAAAAAACKES4DAAAAAAAAABQjXAYAAAAAAAAAKEa4DAAAAAAAAABQjHAZAAAAAAAAAKAY4TIAAAAAAAAAQDHCZQAAAAAAAACAYoTLAAAAAAAAAADFCJcBAAAAAAAAAIoRLgMAAAAAAAAAFCNcBgAAAAAAAAAoRrgMAAAAAAAAAFCMcBkAAAAAAAAAoBjhMgAAAAAAAABAMcJlAAAAAAAAAIBihMsAAAAAAAAAAMUIlwEAAAAAAAAAihEuAwAAAAAAAAAUI1wGAAAAAAAAAChGuAwAAAAAAAAAUIxwGQAAAAAAAACgGOEyAAAAAAAAAEAxwmUAAAAAAAAAgGKEywAAAAAAAAAAxQiXAQAAAAAAAACKES4DAAAAAAAAABQjXAYAAAAAAAAAKEa4DAAAAAAAAABQjHAZAAAAAAAAAKAY4TIAAAAAAAAAQDHCZQAAAAAAAACAYoTLAAAAAAAAAADFCJcBAAAAAAAAAIoRLgMAAAAAAAAAFCNcBgAAAAAAAAAoRrgMAAAAAAAAAFCMcBkAAAAAAAAAoBjhMgAAAAAAAABAMcJlAAAAAAAAAIBihMsAAAAAAAAAAMUIlwEAAAAAAAAAihEuAwAAAAAAAAAUI1wGAAAAAAAAAChGuAwAAAAAAAAAUIxwGQAAAAAAAACgGOEyAAAAAAAAAEAxwmUAAAAAAAAAgGKEywAAAAAAAAAAxQiXAQAAAAAAAACKES4DAAAAAAAAABQjXAYAAAAAAAAAKEa4DAAAAAAAAABQjHAZAAAAAAAAAKAY4TIAAAAAAAAAQDHCZQAAAAAAAACAYoTLAAAAAAAAAADFCJcBAAAAAAAAAIoRLgMAAAAAAAAAFCNcBgAAAAAAAAAoRrgMAAAAAAAAAFCMcBkAAAAAAAAAoBjhMgAAAAAAAABAMcJlAAAAAAAAAIBihMsAAAAAAAAAAMUIlwEAAAAAAAAAihEuAwAAAAAAAAAUI1wGAAAAAAAAAChGuAwAAAAAAAAAUIxwGQAAAAAAAACgGOEyAAAAAAAAAEAxwmUAAAAAAAAAgGKEywAAAAAAAAAAxQiXAQAAAAAAAACKES4DAAAAAAAAABQjXAYAAAAAAAAAKEa4DAAAAAAAAABQjHAZAAAAAAAAAKAY4TIAAAAAAAAAQDHCZQAAAAAAAACAYoTLAAAAAAAAAADFCJcBAAAAAAAAAIoRLgMAAAAAAAAAFCNcBgAAAAAAAAAoRrgMAAAAAAAAAFCMcBkAAAAAAAAAoBjhMgAAAAAAAABAMcJlAAAAAAAAAIBihMsAAAAAAAAAAMUIlwEAAAAAAAAAihEuAwAAAAAAAAAUI1wGAAAAAAAAAChGuAwAAAAAAAAAUEzj7AEAsI/4cKncPpHJsgNGgupB6n/N4nZ5Z20HjwTVFY8xAAAAAHB3VC4DAEoqK/Wz3gTYjscYAAAAAFQDkixTyQjYh8Eo9h7V+3iKLi0tfybg8BnDtRy5a0u1t6eUkm5MSjOatmvUIsBHalxPVTfAQvWxjT1tqVwWFC/DBrZEe9SWojJ4jAEAAABA9UC4DNhT+6ey//w/w/m1tRrVLfmxgHyd3GjkdT9v6dwXtdQqsXizbuZH+SX6hAarRvbxePZhr/qBt5Ji23uSL6PybC8aJftDxfAYAwAAAIBqgzWXAXua8IDnlP/mf/p94YuPeJVoit1TdD1PnhbtqS4WO8eM9R58t1aWRU6BfPKCYcv+ogXrb6yM033zhl+J8mdbekYmyzbmyyalO5M7AwAAAAAAwEasuQzY07/6eXh7Squ+1ZX+SMCKOJ1KEk/c71l8Y9P6qvbh6g7N1fe01UwY6PnNG37rXva9liMP/Xde3g25Yj3LpSiABgAAAAAAACyichmwp0A/6eFe2s/iC/cc0fe589bz6+QFw74/9fd10jYLLucdnZF9PHb+rl8Zp1uzs/DpQZ5Ke9pYvFy8T/+wq7cauI4WbMZV11DVeIxVPyx1AgAAAFQzVC4DdjZhoKcQYkWcrvjGFXGFQogJAz1sOcKoPlohxK5EfcV6srQFAAAAAAAAHIBwGbCzXm01LUPUm/YWZeXeDHmL9GLNTl39QGlId5vC5RYhaiHEhXRjxXqy6gUAAAAAAAAcgGUxAPsbP9Bj9icFX+wunDzYUwix/UDRlSz5uRFeWtuecF4ekhDiRmH5Bcile9qYLJuqm0t03nmmDlXPsH0hAj7ejorhMVYDscIJAAAAUF1RuQzY39j+nh4asfLvlTFMS2SMj7KpbFkIcfmaUQhRN6D8mLhET0XJsulG8TSZZBkAAAAAAAC2I1wG7K9eLWloD4/EJMPvpw0p6cbvfinq3U5zexO1jbvvPaoXQnRsXn6dc/GeSpNlwCIba0UpKUWF8RgDAAAAgGqDcBmoEqZr9638Vrfqu0KjfPMqf7bIyZff3XhDCPFIv3IqnW3vaUayDFuUG+qR+qGSeIwBAAAAQPVAuAxUiXs7aMMaqtbuLlwZp6vtJw3rpbVlr5+P6/vOzklOMz49yLNThLVKZ9t7AhVgJdoj9YNd8BgDAAAAgGqAC/oBVUKSxJNRni+vKsjKladFe5quvFfa4k03NiYUyrLILZBPphgvXzN6eUhzH/Wa+5i30p5UJcO+zAGf+UpcRH6wLx5jAAAAAODuCJeBqjJugMfO34pkWUy0tCZGk3pS73YaIURugaxRi9r+0vB7tJ1u1wzprq3tJ1WsJwAAAAAAAOAwkixT7QjUaNQMwjoeIahqPMaqPaYYAAAAqK5YcxkAAAAAAAAAoBjhMgAAAAAAAABAMcJlAAAAAAAAAIBihMsAAAAAAAAAAMUIlwEAAAAAAAAAihEuAwAAAAAAAAAUI1wGAAAAAAAAAChGuAwAAAAAAAAAUIxwGQAAAAAAAACgGOEyAAAAAAAAAEAxwmUAAAAAAAAAgGKEywAAAAAAAAAAxQiXAQAAAAAAAACKES4DAAAAAAAAABQjXAYAAAAAAAAAKEa4DAAAAAAAAABQjHAZAAAAAAAAAKAY4TIAAAAAAAAAQDGNswcAAHBF8eHSzVthV0tsiUyWnTIkAAAAAADgUqhcBgAAAAAAAAAoRrgMAAAAAAAAAFCsapfFkPpfq9LjA2byztrOHgIAAAAAAABQg1C5DAAAAAAAAABQjHAZAAAAAAAAAKBY1S6LYcaSBagiLL0CVLWdZ+o4ewgAAAAAAMAVUbkMAAAAAAAAAFCMcBkAAAAAAAAAoJiDlsUAAFSphIQEo9HYp08f85bExMSUlJRBgwbFxcWdOnVKpVL5+vpGRETcfffdGs3NF38rTZHJsulG+DLJdCN5ouy4nwcAAAAAALg8KpcBoDpQqVQxMTGyfCv/fe+993JycoQQcXFxZ8+eDQkJMRgMq1evjoyMTEpKMvWx0gQAAAAAAGAd4TIAVAc9evQwGo2HDh0yfZuampqYmDho0CDTt23atBk6dOiECRNWrVo1cODA2bNnm3e00gQAAAAAAGAF4TIAVAeSJD388MOxsbGmbzdu3DhgwAB/f//SPceMGXP06NHMzExFTQAAAAAAACUQLgNANTF8+PDvv/8+NzdXluVNmzYNHz7cYrf69etLknT16lVFTQAAAAAAACVwQT8AqCYaNGjQqVOnHTt2NGnSRKPRdOnSxWK3K1euyLJcp04dRU0AAAAAAAAlEC4DQPUxcuTI5cuXN27cePjw4ZIkWezz6aeftmvXrm7duoqaAAAAAAAASiBcBoDqIzIycu7cuSdOnHj55ZeLbz969OimTZsyMjIOHDhw9uzZFStW2NIEAAAAAABgBeEyAFQfGo1m3rx5165dCw4ONm+Mioo6depUamqqr6/vuHHjunfvrtFoym0CAAAAAACwjhABAKqVAQMGlNgSFRUVFRVlsbOVJgAAAAAAAOtUzh4AAAAAAAAAAMD9EC4DAAAAAAAAABQjXAYAAAAAAAAAKEa4DAAAAAAAAABQjAv6AQBcwrlz537//fcLFy4MGTIkNDTU2cMBAAAAAADlIFwGANf13XffXbt2bdSoUVb6hC+ThBDJE2UrrRVT1jGryMcff2wwGPbs2dO+fXvCZQAAAAAAXB/LYgCAi9Lr9XPnzn3jjTcuX75cbufKhMhWjln8sPY6xblz51atWiXLshAiLS1t+fLlRqNRCPHWW28tWLAgKCjILmcBAAAAAABVjXAZAFxUfHx88+bNBw4cuHnzZlv6V0W+XPoUxb8qdpCmTZvu27dv+fLler1+6tSp9erVU6n4ZQQAAAAAgPthWQwAcFHr169/+OGHQ0JCnn/++UmTJkmS5TA3eaJsJect3qp0mYty4+OKHVmSpEWLFg0dOvTQoUMRERHR0dGKRgUAAAAAAFwE4TIAuKJLly4dPnz4ww8/9Pb2VqvVhw4d6tq1a7l7hS+TrOS81ltLK925rLhZacocGBg4ePDgjz766Mcff7R9PAAAAAAAwKUQLsMtSf2vWdwi76ztjOEA9hcbG9ugQYN169YJIerXrx8bG2slXLa9eLmSimfHFo9p/eqCZseOHduyZcuECRNeeuml1atXsywGAAAAAADuiHAZ9hEfXn50FZms7CP5ZSmdLBdvIl9GNSDL8saNG4cMGWL6tm/fvkuWLMnJyfH39y93X/sWL1thPk7plNl6IXNubu60adPmz5/fvXv3p556aunSpVOnThVC/Prrr8nJyVlZWQkJCRcvXoyOjvbw8LDLUAEAAAAAQFWgWKw6++20oc+zOV8fLLLL0fYc0fd5Nmf3H3q7HK3CrCTLNnYAXN/+/fs1Gs2sWbPGjRs3bty48ePHd+7cefv27VZ2sR4Z2ytQLuvgpq/STRav+3f8+PGZM2d2795dCPHOO++oVKqCggIhRFZW1qVLl4YPH+7v73/p0iWDwVB1YwYAAAAAAJVH5bJ7S0ozxu4pTEwyXMuV/bxF29vU0T08OjRXm1qv5Rj3HNE/Gmm0y7nSs4x7juivXKv40eLDpUoWL9sYHFO/DLdQVr1/ZLJsNBpfeeWV4hunTp164cIFG4/ssOLlEsqqZS6xVkaXLl3MTQEBAZMnTzbdjoyMjIyMrIqBAQAAAACAqkDlsrvSG8TMj/Jbjrv+8uqC4+cNKklcvia/G6vr+HT2Y2/nOX48NqbGtqyeAeCee+7p27dv8S3t27cfNGiQ9b2cWLxc+lwWLwZor6WfAQAAAACAK6By2V1NWJT3v+8L7+uk/Wi6T1jDm28SFOrFF7sKV8TpnDKkyGTZluzYXL9curO9FmUG4Kzi5eJMpyhdxezImBsAAAAAAFQdwmW3tPsP/f++L+wYod7xup+22Bx6aMS4AR7D79Fa2XfHgaLN+wpTMuRAX6lve824AR5eHv+Ifv5INnweX/jXBYMQolmwamBX7cAulg94OtU4bWl+oJ/04TSf2n6SUJIvm2/3D7t6q8F+yyWz8nIFcKc5WvEHvxA7z9Qx3ai68t7kibLja4dLR8wlVskAAAAAAABuimUx3NLKOJ0Q4pV/eWstvTvg5205PJJlMXZB3qBXc3f/oQ/0lc5cNDyzJL/r1JyM67cinnmf3+j4dPbKb3VFeuHnLe0/ph8yN9fi0X46pu8+PfvcZePbT3qbkmUTqo8BlFZ6oQxWyQAAAAAAwN1RueyWDpzQCyH63qls+tbsLFyzs/Chntq1L/l5aoUQYvFm3cyP8md8lP/5HF8hxPYDRXM/Leh5h2bTv/3qB94MfZLSLFzBb2NC4WPz87u2VG+J8SueLAtWVQZchiusjFGCxSpmSpgBAAAAAHBThMtuKf267KERgX7KYtxV3+o0arFkso/n36tczHjI83/f6db/WPjxdB8/b2nJFp1KEquf8zUny0KI5o1Klrcv2nhj9rKCR/p6rH7O1+OfjyAbk+Xiay6blwIQNlQ9275ug7yzto09Yb5XudMcrKznS+XDVisVwU5ZGcP6GMiXAQAAAABwU4TLbslLK3ILhFEWKiUZ0dGzhtBgVeN6/wiLe9yhOXzGcOK8oXMLze+n9U3rq0qnycW9te7GkTOGF0Z6vfWkt/TPsytKlgULaAA1WIkSZlZhBgAAAADAHbHmsltq3lgty+LkBYOivQoKRYBPyfy3lq9kajL9W241tOnqf2mZRuM/UyClyXLF2FhaSwUuYGK9SNkVSpiLf+v08QAAKmDEvDyp/7W9R/UWW8fMz5P6X/vhD70Q4o9kg9T/mulLdd+1gCFZ4WOuP/Ra7qpvdfm6f/xGsL0nAAAAnIvKZbc0sIv25+P6L3YVvj7O2/a9GtWVzl02yrIoXnF85qJRCNGorkoIERKkOnPRaL0geuZDnueuaOesKCgoFGtf9LV4RcGy2KVUWd5Z2/riGCTLcBdVV7xvfe0LV1gZw4wlMgDA3U0Y6BGbULjyW12vtiX/X3g9T964t6h5I1WfYlcK6dxCM7qfhxAi74Z8Id246/eiLfuL/vP5jQ2v+HZp+Y8j2N4TAAAAzkLlslt6ZrBnvVrSwtgbpYtEDEbxv+8LLe7Vv5P2ao68ed+t1ktXjdt/LgpreHMpjEHdtNn58vKvddbP/sJIryWTfTbtLYx+LfdGoRNiICvxMcky4HaSJ8rFA2XXCb4BALaI7Ki9rYEqdk9Rdn7J/xZ+sauwQCePH+hZvLKhdahqxkOeMx7yfHm018fTfU79r9bKZ31SM4xRL+WmZvzjOtK29wQAAICz8J6/W6rjL23+t9+gV3Mjn88Ze5/ng920DetIuQXi0En9yjidURaP3+dReq85o7zW/VD4xML8qzlyzzs0Zy8ZZ39SkK+T33rSx9whNqFw6tL8C+nGQXdrA32lpDTjxoTC1c/5ljjU1KGevl5iwqL8B1/J3fofP18vycELKBMiA9VM8RJm6pdriFvrKYVdLbGFRfkBNyJJ4skoz1dWF3y5u/CpBz2LN62I02nUlv9fWnz3J+73vJAuv7amYMGGG+8/41P5ngAAAHAYKpfdVa+2mt8/ChjR22Pt7sIhc3O7TMnp91zO3P8VtA5Vr3vZz+IuzYJVPyz0b95YNfG9/NZPZj/wcu61XPnzOb4jet/8H3+9WtK+xf7336V968sb3abmtHwie9CruSdTLBeGPHG/5+cv+u45oh8wJ7d0oQoA5zKHsxYLga23Ogv1ywDgguLDpRJfpfuMG+ChVokVcf/49FtikiExyTD4bm1w7fL/4nhmsKckiR0HiuzYEwAAAA5A5bIbC2uo+myOb5FenEoxZOXJft5SiyYq0wX3TDrdrvlhoX+LkFv/oe/QXP3bhwHnLhtTM4y1fKVWoeoSyyuHBKm2zfO7miOfTjVo1FJofVW9Wjd79L5T+8NC/9ahanPnR/p6tLtNnX5dzsqVS18qEACUon4ZANxRo7qqB7pqt/1cdOSMoV3Yzf8rLv9GJ4SYMNDT6q43BdWSmtRTnbloLNIL65f0sL0nAAAAHID/kbk9rUa0aaa22FTbTyp++RSz0GBVaLC1EpI6/lLXUpdJCapl4WhlnRoAKoZ8GQBcUP+/l6/ZeaaOxQ4TBnpu+7loRZxuyWQfIUSBTv7yh8Km9VX33aW18RQBvpJIF9n5ct2AckoWbO8JAACAqsayGAAA18L6GADgdqK6aBvXU32xq1BXJIQQG/cWZeXKT0Z5qmx+Fb+eJwshbPkwnO09AQAAUNUIlwEALod8GQDci1olnrjf42qOvHlfoRBixTc6lSSeGGDtUn7FXcmSU9KN4Y1U5a50YXtPAAAAOADhMgDAFZEv1xw7z9QxfTl7IAAq5cn7PVWSWBmnO51qTDiqj+qibRJk698aS7feEEIM6lb+Ghq29wQAAIADEC4DQPVkDmctJrPWW10E+TIAOF1kshyZLBf/tqyeocGq/p20u//Qv7yqQNh8KT9ZFsu/0b2x9kbdAOn5kV526QkAAACH4eNkAADXxfX9AMCNTBjo8d2vRbEJhQ3rqB7oarm4+Nj/GRbG3hBCFOjE+SvGXYlFZy8ZmwWrYuf6NayjqlhPAAAAOAvhMgDApZEvV1fm+kfz/DK5gLsbfLdH/cD8K1ny4wM8NGrLfX49Zfj1VIEkCV8vqX6gdGe4+pV/eY3q6+HjWfITKrb3BAAAgLMQLgMAXF3xfBkA4LK0GnE5NrCs1vbhanlnbVuOY3tPAAAAOBfhMgDAndixeDk+3HJgbWVFUQAAAAAAYMZqZQAAN8DF/QAAAAAAcDWEywAA90C+DAAAAACAS2FZDACoiRITE823k5KSPD09Q0JChBB6vf7MmTNarbZZs2aSJAkhUlNTjUZj3bp1//rrrzvuuMPDw8Npgy51cb9KHu0TIYQQ/cOulmzof62SR7aI9UMBAAAAANUM4TIA1ER//fWX+fbYsWPXr18vhLhw4cL48eNbtGiRnZ1dUFCwevVqHx+fr7766ocffggJCQkJCYmIiHBuuAwAAAAAAFwH4TIA1ESPPPLIK8tGm27HxMQ0adJECLFw4cLo6OhJkyYJIWbMmPG///3vmWeeEUJotdr33nvPiaM1YzUMwI3cumbm358PMG/hspnuoqxJZAYBAABgQrgMADVdZGSk6cbx48efeOIJ0+0ePXrs2bPHdLtt27bOGdk/FU+Wi6+/XGHx8yUhxM4zdUpst29oIlXNIhsAAAAAADgdF/QDgJouLS3NdCMgIODatZtJ6NWrVwMCAky3NRrnvxNp92QZAAAAAABUkvPzAgCA4x08eNB8e+rUqevXr9doNMOGDVu8eHGjRo1ycnLWrFmzePFiJ46wLHZMlvlYNwAAAAAAlUG4DAA1jsFgWLdunWh189vOnTvHxcUNGjRo9OjR3t7eixcv1mq18+fP79y5sxCiUaNGOp3OmcNlqWUAAAAAAFwS4TIA1Dhqtfq9997btuxmYfKcOXPMTdHR0dHR0cU7l/jW8VgQAwAAAAAA18SaywBQPZkzWYuBrPVW10GyDAAAAACAyyJcBgC4KJJlAAAAAABcGctiAIAriouLO3XqlBDCx8enTZs23bt3d/aIHM0xyfKaNWu6d+/evHlz07cHDhzIzMx84IEHquh0rsl1lrSu/Eh4E6Ji3OWjDCgLMwgAAABnoXIZAFxRXFzc2bNnQ0NDfX19582b98EHHzh7RA7lsJrloKCgGTNmFBUVCSHS09NnzpwZHh5edacDXFz4MsmObzZEJsumLytbYF/2nUFR9iTa8RQAAABwa4TLAOCi2rRpM3To0NGjRz/55JMHDx509nAcx5GrYURFRUVERCxevFgI8fLLL48dO7Zly5ZVekZUqcona0aj8ezZs4mJiWlpafYalduxe0AJB2MGAQAA4DAsiwEALuq3337z9PTMz8+Pj4+fOHGis4fjII5fZzkmJuaBBx7Iy8u7du3ahAkTHHBGl+W+H6gvkaOZvq3YjxMTE3P69Om6deueOHGibdu27777rkpVQ9+Jr8zdWELY8Dp/33TXx5g7suMMCiYRAAAAZSBcBgCXplarVSpVZmamor2sr7/psqtzOuUKfgEBAa+99tqkSZPi4+PVarVjTgr7Mj1aFEXMOp3ujz/+uOuuu0yTnpiYGBYWVqtWrZiYGFOHoqKinj17njhxok2bNlU7eleSPFG2Y1IPx2MGAQAA4GCEywDgojp16jRmzBghxIABAwYMGBAdHe3l5eXsQVUhpyTLJs2bN9doNKGhoY48KezO/LAp/lgKXyZZfDh5enquXbt23759zz777JYtWz777LMNGzaYmq5evXr58uWjR4/q9foGDRo4YOQupQJJPVwKMwgAAABHIlwGAFenVqsLCwv1er2zB1KFnJgswzEKCwsTExM7d+5cfJWJxMREU7J/5MgRIYRWqw0KCgoJCTF3KCgoKKvJihLFm2XFam+++WZ0dHRgYOCqVas2bNig0dz8T9GhQ4e2bNny119/Pf/883Xr1q3gD+zmygoo7fv0/OOPP5o1axYYGGjekpSU5O3t3bhx499//72oqEitVgcGBt52223FP1VgpQlmjomYz5w5o9Vqiz8xr1y5kpmZ2apVq6SkpMzMTEmS/Pz8mjVr5uPjY+5jpQkAAABuh3AZAFzU0aNHN23adOPGjS1btjz44IN+fn427mj9Ok6udpWnEuMhWa6utFrtnDlz5s2b17NnT9OW8+fPjxkz5sCBA5KBNmoAACAASURBVGlpaY899tiwYcN0Ot25c+cyMzNfeeWVyMhIIYSVJutKJ2ulg1FfX9+YmJhHH310/vz5jRs3Nm+///7777//fp1O9+CDD0ZERHTs2NEu94A7sng3Cvs9T7/88sv69es/++yzpm9lWX7iiScWLFjQuHHjp59+un379rVq1bp48eLp06cfe+yxyZMnm7pZaUIJVR0xHz58eO3atbGxseYtCxYsaNKkSatWrZYsWZKSktKiRYv09PTjx4/ffffdMTExpl9kVpoAAADgdgiXAcA54sMth7yRybIQIioq6tSpUykpKV5eXpMnT+7Tp08FTmE9O3CFGNdFkuVatWpNmTLFKaeuOSRJGj58eGxsrDlcjo2NHThwoK+vrxDC09PzrbfeMm3fv3//hAkTNm/e3LJlS+tN5Spdwlz8MSbL8ieffHLPPfesW7du6NCh5splE09Pz9DQ0OPHj9fkcNmk6iLmkSNHTpkyZcaMGabq4/3796tUqq5du5pap0yZ0rZtWyFESkrKI488EhgY+K9//avcJpRWdRFzVFRUTEzMmTNnwsLChBC5ubnfffddXFycudV0ldT8/PypU6e+9NJLS5YsKbcJAAAA7qWGXgAdAFxcVFTU9OnTp0+f/tRTT/Xt21eSXKvc2C5cJFkWQgQGBlL56ADDhg3bvXv39evXhRAGg2HTpk0jRowo3a1Hjx79+vX76quvFDWVJXmiXPyhVfxR9+GHH3p6eq5evbpZs2YLFiwwbVy+fPlvv/128uTJNWvW/PLLL927d7f9XNVbiXtSCBG+TKrkJyE6duzo7++/b98+07exsbHDhw8v/XLXpEmTiRMnbty4sfQRrDShhNIzKCo9iV5eXoMGDTJXLm/fvr1Dhw5NmjQp0c3Hx2fOnDnffvttXl6e7U0AAABwC4TLAFCtuMWaGCXiDIuRB6qf4ODgbt26bdu2TQixd+9eX1/fTp06WewZFhaWmpqqtMmK0vlyWlra4cOH33nnHSHEf/7znwsXLiQlJQkhtFrtypUr33777aSkpPXr15vqMWFm94jZVM8uhLh+/fquXbsefvhhi93Cw8NTUlKUNqE0u0fMI0eO3LJli8FgEEJs2LDB4jtGQoiwsDCj0Xjx4kVFTQAAAHB9LIsBAJUi9b9WwT3Drhb/bueZOqYb9sp/XXZNDNcpWIbjjRgx4r///e9jjz1mJYQSQuTk5Hh7eyttsq74Ehmm9TGWLVtm+tbHx+ejjz4y3X788ccff/zxChy/RrHjQhkPPfTQ+++/n5WVtW3btq5duwYHB1vslp2dXdZl36w0oSx2XCjjjjvuCAoK+vHHH0NCQs6fP3/fffdZ7JaTkyPLssUnr5UmAAAAuD4qlwEADlK6OI5kuabp16/flStX9u/fn5CQEB0dbbFPUVFRQkKCxaJmK022KGt9DFSMXaqY69Spc88993z11VexsbFW3m+Ij48va96tNMG6sqqYlR7HVH6+YcOGwYMHe3h4WOwTHx/foEGD4lfOtKUJAAAAro/KZQCoKZyYppU+NbFyzaRWq6Ojo2fNmtWzZ8969eqZt8uynJKSotPpzp8/v2LFijp16pijZytNFVDiEn+ovNJ3qdIC2BEjRjz//PNGo/Hee+8tvv3KlSvnz5+/ePHi9u3b9+3bt2HDBluaHODw4cN//vlnRkbGlClTTJciLCoq+vDDD80dhg4dGhoa6sghVUbl69CHDBmycOFCjUbzxRdfFN+enZ2dkpKSkZFx8ODBZcuWvfnmm7Y0OUxaWlpsbOyDDz4YHh7u+LMDAABUG4TLAGAf8s7aivrHh1tOuCqTuprTAddZE4NYGSWMHDny8OHDY8eONW/x9vZu167d888/r9Vqg4KChg0bNnjwYI1GY72p8kyLY9jlUDVcJddY6NWr15133tm1a9fiM9uxY8eVK1eqVKrAwMA777wzLi6udu3a5TY5gMFgmDdv3u23375+/fpJkyaZw+WlS5fOmzfP1MfT09Nh47GXykTMtWrVGjt27MWLF1u1amXeGBER8fPPP//2229+fn4RERHr169v3rx5uU0OI8vySy+9dOLEidatWxMuAwAAVIYky1X4Z5V5KVKlmQsAh+F5WkkVvgPLCpcjkyv4slziEnmKWquCxfrQGpjluf5TzMb3JKoTxz8dXJwdHwPWC8Pd697ev39/bm7ugAEDhBCHDh1KT09/4IEHTE3Z2dkdOnQ4fvy4KUfOz8/v1KnTiRMnnDVU+z6LLb4p6I4vFOfOndu1a9e4ceMkSUpLS/v666+ffPJJlUolhFi1alVeXt6PP/44adKk/v37O3ukAAAAbozKZaCGKn0ZOtMWl82/YDunly0TK8PFsThG1bFYxeymWrduHR0dHRQUFBwcPHPmzE8//dRKZ6PRuHHjRq1W261bt7IuS+guyqpidjtNmzbdt2+fXq9/4oknpk6d+uijj5qS5aSkpLi4uHXr1v3444/OHiMAAIDbI1wGaqLSyXLxJvJlx6hwhbJF1v/yd0wuUNZZiJXhylgcoyqUFTG7171du3btRYsWzZw5MzAwcPbs2VaWblCpVIMGDcrIyLh8+fK8efPefffd3r17O3KoVaEavE8gSdKiRYuGDh166NChiIgI03LtBoNhzpw5b7zxhmlJEwAAAFQS4TJQ41hJls0dyJfdl+PLlq1ED26UIqGmoXjZASq5FrMr6NixY4MGDdLT04cOHWqlm5eX18KFC02377jjjg8++KAahMsmlb/cn3MFBgYOHjz4o48+Mhcpb9y40WAw/PTTTz/99FN6evquXbvq169/5513OnWYAAAAboxwGahZyk2Wzd3Il92IU8qWyZSdzu7Ldtc05nzZvcpp3Y5bR8xr1qxRq9UREREffvjh5MmTbdlFq9UajcaqHpiDuW/EfOzYsS1btkyYMOGll15avXq1SqW64447Bg8e7OxxAQAAVB+EywBQfVR12XK5ObXrBw0AnMIdI+Zjx44tX7588+bNHh4eQ4cO7dSpU7du3YQQ33zzTUZGhhBi06ZNdevWHTBgwK5du37++efQ0ND09PS1a9fGxMQ4e+xVwu0i5tzc3GnTps2fP7979+5PPfXU0qVLp06d2qZNmzZt2pg67Nix495776VsGQAAoDIIlwHAvVVd2bLt+7pssgDYiOJlx3B8xFyZ64ueOnVqyZIlQUFBQoilS5cePnzYFC6np6dnZWVNmzYtPT3dVKTcoUOH7OzsS5cuBQcHb9y4sVmzZvb8GVyMgyPmyszg8ePHZ86c2b17dyHEO++889lnnxUUFHh7e5s7jBgxIiwszF5DBQAAqJkkWa7CP6XMH8Dn8/Uuy8ZFElAD8bS1kdNf6Mx/eFv8Y7tKV5UljLOFI19md56pI4R46oUK7l56QvPz87t16xYZGblo0aJKjs1lKX0GVcuHvfU7oapPWpy9BmDjS1+1mU2nzKCoyidITZtBAAAA90XlMgBUB475A5s/42uar7/+unXr1rt27crOzg4ICHD2cBzHSrDlrBSv+imritkBC/jY93Q1WRVVMTODAAAAboRwGQDcW7nrLFe4eLlEasAf8DXQhg0bnnrqqc2bN2/btu3RRx919nCqROnL+tn4lCHVsgv7ppM2FtK60arBbqH0L5oK36vMIAAAgNshXMZNrIFQQ7AQSg3En9zOVXWvrvHhljNQpTNeVpaalJR04cKFvn37ajSad999t7qGyyWUuDdK35klUi2eX3Zhl4i53LmzfjqmsjLsspo2MwgAAOCOVM4eAAAAcEWxsbFDhw5Vq9W9evXKzMw8fvy4s0dU5YpnVckTZYtZVYntVbqseU1T+j4PXyZV7B62JWcki7Q7i8+aik0iMwgAAOAuuKBfTccc1UC2FC/zeLBdtX8SsSxGtWdxivV6fffu3TUajUajEUJkZ2dHR0f/+9//ds4Qq1jFLkpWIom285iEEGW/XNv91cYFn+ZKJ6XC0+GAeXQAt5hBYXV4NW0Gy/roSQmRyW7zEwEAgBqLymWgxik3laiuISkA28XHx4eEhPz0008JCQkJCQlbt27dunWrTqdz9riqRIlAysZ8qqrrl628EVgTFjhSVMVcmXiROvQqoqiKmRm0l7OXjD8e1hfobt4np1ONPx7WF+qdOygAAFDNES4DNZGV+JhkGYAQYsOGDUOGDDF/GxoaGhYW9t133zlxSI6hKNiqujLJcuPjmpAvC+ULZVRsRtyo3NXtKF0ogxkswcYCZ7OVcbq+s3NSM2/eIe9vvtF3ds7VbGMVDM1pUtKNPx7Wm78O/qW/kG6sys/iAgCAcnBBP6CGMofI1X5VBwAVsGrVqhJbNm7cWHWny8zMjIuLqyHXDDQrKzbqH3bVlt2l/td2nqljsamafZQ+eaJcySvFVZ2yJtHGKajk7u7CLpf7qyLOmoLIZNnG4Dg+XKpmj4dK2ri3aOZH+SU2Nm+kmvuY92ORHk4ZEgAANRyVywAAwMkyMzM///xzZ529Mh+lN0djfB6/SlkpgLXLcsPMowOUW8VcjWcwPlwq/mXaSGRcGTFjvRM/Dkj8OGD/Yv+lU32u58lj5uft+5MVQAAAcAIqlwGguiksLExMTOzcubNKdesdxMTExObNm/v7+wshzp8/n5mZWbdu3aZNm5o7WNwIWJGWlrZ379677rpr7969QUFBUVFRKpXKYDAcOHDgxIkTnp6effv2bdKkSVk9hRCXL1/+/vvv/f39Q0NDnf3ToKSCgoI///yzc+fOBQUFR44cue222+rXry+EMBgMv/76a5cuXSTJ0SmexQLY4oxG4y+//NKpUyfThSiFEL///ntERMTx48dL9PT09Gzfvn3VDdVFJCUl+fr6NmzYMCkpKScnp0OHDqbt586dU6lUISEhjh9SuZN47Nixhg0b1qlzsyrf9CNcvXo1Nze3RM8OHTp4eNSISlWLxctpmcbzV4y+XtJtDVR+3rY+GXVF4sAJvUoSPe7QqGzY6UK6MTXD6OUhNa6nCqpVcof06/KFK8Yig9y8kbpuwD9aT6caUzOM3dtoPDTiVIohK1duEaKu5XuzT06+fDLF6O0hWoeqi7+QmPfSqsWJ84bsfLlFiLq2n4WBNq2vah+uNt3u3kaj1YiJ7+XvStT3vIM/bwEAcDR++wJAdaPVaufMmTNv3ryePXuatpw/f37MmDEHDhzIy8sbP358UVFR06ZNL1y4ULdu3Y8//tjiRuf+CHALaWlp8+fPHzVq1L333vvZZ5+dPHly1qxZWVlZP/30U4sWLbKzs8eMGbNy5crbbrvNYs+MjIyHHnroX//6l4eHx2uvvebsn8YOlJZMfvL3DRvXwSitxI7mVTLsUryZlpb2xBNPHD16NC0tbfTo0T169FizZo0QIi8vb/To0adOnVKr1ZU/SwUkT5QvXrzYc3ujEtvDl0nHx94YPXr0r7/+Wrv2zYWenn766Y8//nj9+vVCiLy8vN27dw8aNEgIERQUVDxcLn6PKbr3TJNoYQZtXBS71I6mSbRX+e2SJUvatm07YcKEJUuWfP311xs2bOjUqZMQYs2aNb6+vrNmzbLLWSrgxOO6uXPnxobNL77R9FO3/+6h8ePHR0VFmTaafoT8/Pxz584JIb7//vvOnTub5rdly5bmcLmSMyhKT6J9lzUvdvCdZ+ooXUlZ/DNf3n9MP31p/m+nDaZvPTRi8hCvRZO8yz3ItVx5yNzcX08ZvnjRt9xk+ZeT+vGL8o+cMZi39GqrSVjkb7q9+w/91A/yj5+72SpJYlA37Ypnfc0B9PubbyzdpktY5D9taf4fyQYhhK+XtPgZ7/FRnm+vu/H6FzfybshCiA7N1XFv+gXXVhXfa/0rvi8sL8jXyboikXdDnh7ttWCit/UBX82RhRBN6rli3ToAANUe4TIAVDeSJA0fPjw2NtYcLsfGxg4cONDX13fNmjVeXl5ffvmlaXtBQYEQYtOmTaU3Arbw8fF57rnnJEny9/efNWvWrFmz6tatO378+N9//12v17du3fqbb76ZPHmyxZ7r16/v06fPM888I4TQaDTLly939k+DMtWqVevKlSv79u0zv6o4kSzLkyZNerLrGy+99JItMaJGo1m0aJEQ4ty5cwkJCabbNdBdd9319ttvx8bGOnsgQgixcOHC//u//zs6N8/Hx8eWSZw+fbrpRvfu3adNm2Yuwa6B9v2p7/dcToCP9NF0n+6tNUZZ/JFsOHvRUO6OZy8ZB76Um5Ft3P2OX7dW5fwNKMti8Nw8H0+x43W/Ns3U+TfkpDTjniO3Fp24dNXY507Ne097h9ZX5d4QW38qfHPtjdFv5u2c71f8OKPfynss0mPZTJ+rOfK0pQWTFuefOG/89peiz+b43tZAtfWnotfWFLyy+sbyWT7F95r4Xv4XL/o+0FVrlMV/v9LN+DDfUyveeOIf6bl5BYwCnXzkjGH1d7p72mpG96sRlewAALgawmUAqIaGDRsWGRl5/fr1WrVqGQyGTZs2/fe//xVCeHh4XL58+eLFiw0bNhRCeHt7l7URsEVwcLBpbQQfH5/s7GwhxNGjR6dMmfLwww8HBwdrNJqMjIyyeqampt5+++2mVvMNuCZJkmbPnr1gwYIePXo4eyziyJEjSUlJfz6wbeWyl509FnfywAMPbNq0KT4+PjIy0rkjMRgM69atW758edvPfZ07Enc0/cN8o1H8sNC/7W03PzpgXh3Cil9O6ge9mhfgIw4sCQhvVP5Fd85fMV66anx9nPcDXbWmLa1D1YPv1po7jO7nUTzJ7RThnZMvL96sS0ozNi92/NH9PN78OxReNEk8+EruJzt0pz8NaFhHZRp5/O9FX/5QWCJcnjDQ03RelSSmR3tu/7lw0Sbds8O96vjfeh9iZZxuZZzO/G27MPXb4729PalcBgDACQiXAaAaCg4O7tat27Zt2x577LG9e/f6+vqaPgr90EMPHTt2LCoqKjAwsFu3bk8//XRoaKjFjc7+CeCuvv3221GjRj399NNCiCNHjshymVesaty4cVpamul2amqqg8ZXlZRejix+/s0cxLychYntq2SU2LHCI7GldDQyMnL58uXbt2/v06ePooPb3UMH24vpFrbvuu9shY+ZPFGu2GXlTJNYeiJsvFabeXmEEpNeFTMohHjhhRdiYmL69u2r6OB2l5GRkTfl6OjD3UpsfyPgy1GjRg37blgFjlnJGRSlJtG+V9srsQ6G+eC2r49h2iUt0/j7acPALlpzsmyL7QeKZnxY0L65emuMX71S6yZb1LCuqo6/9PEOXUiQ6v7O2vqBlve6kiWfTjXkFsiyLHw8JSHEn2cNxcPlkb1vBdCmELxXW40pWTZv3PenPuO6XHxg0T1updhCiOieHrsS8xOO6IcW2750qo8p3b5RKJ84b3xxZUHvZ3O2xvhFdfnHvgAAwAHKf+MaAOCORowYYfr484YNG0aMGGHa6OHhMW/evN9+++3DDz/UarUjRowoKCiwuNGpY4cba9Omze7du48cObJhw4Z9+/ZZ6Tly5Mhdu3bFxcUdPHjQtJivsygN8oqrWJ7lpl544YVFixYVFRU5awDhyyQrKaqPj4/pQpEGw60lAgwGg7PWhnZB3bt3b9iw4caNG504hvBlUvetDSw2+fr6CiFUKpXRaDRvNBqN1WAGI5Pl4l+mjUqTZSFESrpRCHF7E2V/wT39fr4sxPqXfW1MloUQHhqxJcYvwEcauyAveHhWi3HZsz4uMJ3dJDnN2Hd2TvDwrJ4zch54OXfov3Pfib0hhDCtpGzWqO6tM/p6SUKIxvX+MXjTxtwSe/2zT+O6KiFEWqax+EYfLynQTwr0kxrUUfVtr9n6H1+jUbywgv+9AADgBFQuA0D11K9fv1dffXX//v0JCQn/+c9/ijep1erWrVvHxMSsX78+JSUlIiKirI2AFY0aNTK/bxEQEDBu3DghxMCBA/39/Q8ePNi8efP333//2rVrZfWsV6/e2rVrv/vuu7y8vLfffjshIcFJP4fTlFUaKQsh2XAxMXlnbSEcmmh37NixZcuWa9eudeRJTSxmyuZA39R691fByRPlevXqpaam1qtXTwiRn5+flZXVqFHJS/9ZOb7SNwkqWd96a/e/Z9y+BbOlPf/88xMnTuzdu7cpyXUkK5NoappxcfAgITds2LD4RxlSU1MffPBB2w/u4BmssAoky0II07IPWbnKxrzyWd+nl+RHvZQbv+DWpfPKdU9bzbEVAadSDAlH9bsS9Uu33vhil+7o8lqmKubo13JT0o2b/u3Xr70m0E8SQmzYUzjy9Ty73JtXs+Vmwbe+zcw2ir9/9rIE11aFBKn+/D+Drkh4UrsMAIBjES4DQPWkVqujo6NnzZrVs2dPU84ihNi2bdv169c7derk5eW1devW+vXrh4aGWtzo3MHDLTRq1GjkyJGm2+bIWAjRq1evXr162dIzODh4zJgxptuPPvqoIwZdnvBlku3hlI1rEVSAvLO29XxZ3lm7ik5t3XPPPTd8+HBHntHinTxHWrZmzZrvm30fHh7+yy+/FG8aNmzY/PnzX3zxRS8vr2XLlt17772BgYGOGqwbaN26defOnbdv3/7444877KQWJzHwk47Tpk1LSkq6cOFC8e0PP/zwiy++2LJly5CQkD179ly+fLnE60mNUiL7bhGi9vOW9v6pL9ILrc1/xg24S/PtW34PvpJ7z6zc+AV+IUEKCp9vb6K+vYl6fJTn8m80E9/L//pg0bgBHmmZxqNnDc8M9nyo560c97fT5V9U0Eb7j+k7RtwqV//puEEIYX0lEKMsMrJlSQgVqy4DAOBwhMsAUG2NHDny8OHDY8eONW+54447Nm/e/P777+v1+ubNm69fv97Dw8PiRicOG3CwEsmXjfly8b2qYk0MK/myY5Jlb2/vu+66q/gNIUR4ePiYMWMOHTrkgAFYr1Zu0aLFV199lZmZ2aRJExF6a5dTz+pjY2OXLVtWWFjYvn178zsZQggvL68uXbrYeKLqISIiwlS4HRER0aDBzcUoZs2adfny5SZNmjhgAFYmMalf0meffbZ79+7AwEDR5lb/5InyggULtmzZcvXq1bCwsM2bNxcvsu7YsaO/v78tZ6mWPDRi0oOeC2NvzF6Wv3CijzlfPnPRGNbQWmR8T1vNzvl+97+Ye8/MnF3v+FvvLIRISTdeuibfdfutPPdajizEzaLgOv6SRi0OJxsMRqFWCSHEob/0H3yls3ws5RZsuDHobm2zYJUQ4qdj+s/jde3C1MUHU4JRFjFrCnIL5H7tNbZn7gAAwF4kK1fascPR//6jyFn1NShL6QvImC5j4qzPBsLxeAzYS3V9obPyiV0eJC6irDlSOkE1atVgi6yHmOXu4oD7rapfZ1ztMeDIGXHwVJalklPsajMolE+iu8+gw+iKxEOv5X5zqKhpfZUpbz18xtAsWBW/wF8I8crqgjfW3jj9aS3TVfWm/Dd/6TbdxfW1GtRRCSH+SDbc90KOViPtesevZYi1QuAfD+v7zs5p3kjVOlRdN0BKSjPu+1N/1+2aPe/6mZanmPpB/gdbdS1C1F1bqlMzjPv+1I/q6/Hp94WfzfF99F6P0qcWQmTlyrWjs56M8lwxy8d8ojkrCuavv3H281qmKNm019j7PLb+VNT3Tk2+TvzwR5G3p/Tju/6m6wEKIRZv1s38KP/OMHWTIJXpDjl5wXAh3diwjmr3wnJ+LgAAUBV4bxcAAEAIIZInyuagynSjdFZVIjKrCWGWI1UgVjb3KT53Ns5LTcslHaNik8gM2shTK3a87rf1p6JtPxemZMgBPtKoPh4jet/8vNFtDVS922m8//70UUQTde92Gg/tzXupfbh6zyL/aUsL/v3pjWUzfWr5lvkucucW6g2v+u49qj9/xZiWKTdvpHpmkO/D93ho/k5u35/s06WlJu5Q0eVr8u1N1PMn+BQWyf93yRgcKFk8tRBCoxa922la/PNqhGENVb3babz+uUry2096P9hVu3FvUb5OnjzEa3q0Z2jwrb2a1JN6t9MIIXILZCGEWiXubq15to1mbH8P0+rPAADAwahcrlouWEhiQtWqw/AYqPaq6wtdWY8QwYNEIVuuzGYvpjl66oUK7l7iZWr58uX5+fmSJAUEBPTo0aMaX+OxxAu17R+xt+WFfffu3Wq1unfv3qZvL1y48O23344fP16SFIQgNaFyucKxcllHKHdfl3qfoHpULldyEt16BmEXpeudAQCA6+PXtoOEL5NMX84eCJyGxwAA97JixQq1Wt20adPCwsJRo0YdPHjQ2SOqEqVTORsjKhu7RUREvPDCC+fPnxdCGI3G2bNn+/r6KkqWqz2LvxyTJ8pKs8IS/a38zi3dRC5ZSXaZRGYQAADAHbEshqOV9TFb1Bw8BgC4i969e7dt21YIcerUqV9//bVr167OHpGDmF+iLeZlig4VEhIyY8aM2bNnr1u3btWqVT4+PqNHj7bPKKvAxYsX69Wrp9Vqrfc5f/58WFhYUFCQeWNaWlqDBg1UKmtVCxkZGampqRERET4+N1dctaXQNTU1tVGjRjbG8aVrz8t9T7f6/To+f/5806ZNrff55ZdfPDw82rVrV/yOTUlJsX6VP4PBcPLkSV9f39DQUPNGWyax3COX2LGGz6BjnLtsPHHeUFbrPe00Pp68BwYAAGxCuOwcrhMvmj/nDgfjMQDUNHZf0KCsC/opfWGxkt18/fXXiYmJGRkZycnJU6ZMUTY+d+CY3GrUqFHx8fGvvvrqDz/8sGXLlsofsOrs2LFj6NChOp1OpVJJktSwYcMLFy6EhIRcunSpXr16Go3G1KdVq1ZvvPHGU0891apVK1OsvG3btnHjxkmSdPLkyZCQkMDAwBMnTjRo0KB27ZsP+4SEhFOnTnXq1GnHjh0jRoyweM/v6HW8QYMGKSkpppD6ypUrERERK1as6N+/f9euXf/666+QJBs6KwAAIABJREFUkJDs7GyVSuXj4xMYGFjWT1F89V7rXOG3sN198cUXL7744tmzZ/Py8lq1apWTk6NSqQICAkxTaeoTGxt73333LV68eOTIkY0aNTKFv5s2bZo+fXpqamp2dnarVq2ysrLS0tJat25t2sVoNL7++uv333//2bNnCwsLg4KCOm2w8Jq2veex1q1bnz17tqioSKvVGgyG2rVrv//++1OnTvXz80tPT2/RooWp9fbbby/rR6jhM+gY2w8Uzf4kv6zW4ytrhTV0QrhceqVmAADg+lgWw0EsfjCQdRJqFB4DANyUSqXS6/VZWVnOHkgVquqI6q233tq6deusWbOCg4Or9ER2sWnTptOnTy9btsxgMGzdurWgoODzzz83JcsmLVq0qFu37ueffy6E2Lbt/9m77/CoqvyP4+dOTW9AQgk1SJGmtIQiWSQgJdIJRekQlKLAKkXKD2SVVVQQVAJKs1ASmoDUKLqgCEvHQkeQpZMEUqfe3x+DQ4SUCUxN3q+Hh2fm3DNzT+aeTGY+c+Z7NxkMBkv7ggULjEZjenr6smXLrl69Om/ePJ1OZ9m0e/fuYcOGPf3005PTej/8V+/0UONU9VLLTVauXHny5MnU1FQhxJw5c3x8fMLDwxcvXpyenv7OO+8kJiaePHlSo9GIAln+5uZ3WAveWjy8+eabZrN5xYoVQog1a9acOnXq6NGj1q3BwcH169e/ffv2pk2bhBDr1q2ztN+6dWvJkiU5OTlZWVlz5869efOm5R6EEJcvX65cuXJkZGSnTp3a767xQLI8RbXkxIuZL/5vuuUmM2bMCAgIuH79+k8//XTkyJGAgAClUjl//vxLly6tXr3asrXg8XMEHW10F23O1uD8/lUr55o3ia92037/vn+IPy+MAQDwJKxcdqr8zhTkPotY4WjMAQAepFOnTpayGOXLl3/nnXdWrVrl6hF5qjJlygQEBERERLh6ILZq2bLl+fPnMzMz27dvv2rVqlKlSuXeunr16tatWx8+fNhkMmVl3V/82K9fv507d/r5+Z0/f97Pz6927doGg0Gr1QohAgIC8vwk9fRQ4+eff56ZmWm9yblz56Kjo5OSkoQQV69erV+/foUKFW7duhUZGblv377MzMzo6GilUmnjD1Ji/7DWq1evfv36u3fvDgoKunPnzs6dO+Pj461bT506tWPHjrFjx65atUqn05lM98ojlC5dulmzZps2berXr19aWtqtW7eqV69u2RQcHHzjxo2HD+KojPfHjx//4Ycf3r5923qT27dv+/j4/PDDD/7+/jdv3gwMDDSZTNWqVWvVqtW8efMaNGhQtmxZG3+QEnsEAQAAPAXhsgvkV8nRmWf6jjn34BgOxaXm/obp2bNnvb29K1SocPjwYYPBoFQqg4KCqlatmvvtXAGbUDD3nANnhplyl8s8cuRI9erVVSrV8ePHhRBqtbpMmTLWb9QKIbKzs/PbhGLAOkNE29QHW+AenHlEVCpVZmam03bnHM58yvUU5cuXV6vVlvK4ZcuWValU1atXX758+auvvpq7T4sWLYKCgkJCQr766itLDY3y5csrFIpff/1VkqTQ0NBBgwbt2rXLx8fH19dXWB5q3wf39X9eKyzFly07st6kZs2aQojSpUtnZmZGREQ0b978iy++6N69+9KlSytUqMCLjUJZCi5bDqLl/2eeeebXX3+1pPwWbdu2feGFF4QQfn5+W7dutfwFDw8Pv3nz5tWrV0NDQ6tWrdq0adPMzExrgeynVgWIv1ci+T+vFfXq1Ttz5ozlthUrVrTeJDw8XK1Wh4aGarXaMmXKZGRk3L59Wwjx+eef9+vXb9++fU55JAAAAOAMkiw78A2V9FckYfdCk57Cljeu+ZVEcM57XeveR6a/989//tNyWZbl6Ojod999NyoqKjIy8qmnngoMDLx69eqZM2f69+8/atQoS7cCNsHKg+bAiif3tGzZ0nL50qVLnTp1+vnnn69du9ahQ4cePXrodLqLFy/evn176tSpMTExQohz587lt6lEKfZPdMX+B3Q0938A83uaioyM7NevX3h4eEpKyrJly0aPHu3OZ6IrqtxPvM55sm3evPnHH3/89NNPP8JtHT2LHJez23K2N4jHPsQO/aTk8U9rCQAAgGKMlcuu5w6LWIUQ69atGzt2rGVB0I8//qhQKCIjIy2bRo8ebfla9OXLl/v27RsUFGRZ7VLwJtjOTeZAUlKSNVxOSkrq2LGjZcWZVqudPXu2pf3HH38cPnz4+vXra9WqVfAmAJ5u2LBhWVlZly9fDggIWLx4cd26dV09IodwWkw2dOjQcuXKOWdfdmcymTZu3CiE8Pf3b9eunS03IVZ2NydOnDh9+rQQomnTpjZ+2YiDCAAAgEIRLrsR11bj9ff337t3b3R0tBAiKSmpV69ekvTgSMLDw+Pj49euXftwglzAJtjOtXPgu+++u3PnjqUw4rp16xYsWPBwnxYtWjz77LMbN26cNGmS7ZsAeKLhw4e7egiO4pLTqA4dOtT5O7UXpVLZo0cPGztzllr3VK9ePcuCAFtwEAEAAGAjwmW346pFrL169UpKSoqOjr5z58633377xhtv5NktIiLi8uXLRd2EInHVHIiKitq0aVP//v337Nnj6+vbqFGjPLtVq1btwoULRd0EAG7C+QUxSo78FrqSVHqQ/IpgcBABAACQJ8Jl9+XkRazdu3f/8MMP09LSNm3aFBkZGRYWlme3u3fvWk/tYvsmPBonz4G4uLgFCxb0798/MTExLi4uv27p6ene3t5F3QQAuSUlJd2+ffull16ytmzYsOHKlSujRo26e/fusmXLfvnlF0mSIiIihg4dWrp06TwbH3MMJMt29Aj1E2bOnNm6detWrVpZW95+++2oqKhnn332woULK1asuHjxoq+vb926dS3zJM9G2MsjHMFff/110aJF8+fPt7acOnVq/vz5H3/8sdlsTkxM3LNnT1ZWVnh4eO/evevWrZtno/1/EgAAADgX4bK7c9oi1pCQkFatWm3cuHHdunWjR4/Or1tycnJ+C1oL2ITH4bQ58Oyzz06bNu3HH3/8z3/+8+abb+bZx2Aw/Oc//4mPjy/SJgB4QIMGDfr06TNkyBCNRmNpWbx4seW8sqNHj65SpcrEiRONRuPBgwczMjJKly6dZ+Mj7JfVl3b3yGV5q1atunz5cmu4fOvWrZUrV7700kvp6el9+vQZO3bs4MGDU1JS9u7dK4TIsxF28chHsFatWgcOHDh27FiDBg0sLatXr7YUFl+4cOGePXsmT57s7+//+++/p6Sk5NcIAAAAT0e47DGcsIg1Li5uwoQJZrO5TZs2udtv3Lhx6dKlq1evbt68ee/evYmJibZsgt05eg4olcpu3bqNHz++ZcuWuVMbWZYvX76s0+kuXbr02WefhYSEdOvWrdBNAFCAGjVqVK1adefOnbGxsUKIY8eOpaSktG7dWghx8ODBGTNmVKtWTQhhPUFono1FRUEM+3rMs7117dp1zpw5169ft3xZav369dHR0SEhIUeOHFEoFH379hVCVK5c+emnnxZCnD179uFGPKbHPIJKpbJ79+5JSUmWcFmv13/99derVq0SQhw8eLBLly6WdsuvbX6NAAAA8HSEyx7GoYtYn3nmmQYNGkRGRqpU9ydGw4YNlyxZolAogoKCGjRosG3btuDg4EI3wXEcOgd69+597NixgQMHWlu8vb3r168/YcIEtVpdpkyZHj16dO7c2TJDCtgEAIWy1Pq3hMuJiYndu3dXKpVCiDZt2owcObJz586NGjVq1KiR5Vklz8YiIVm2o8cMJS0CAgJiYmLWrVs3cuRIIURSUtLUqVOFEDVr1tRqtYMHD27dunWTJk1q166dXyMemV2OoBAiLi6uW7duU6dO9fLy2rFjR5UqVWrWrCmEaNOmzQcffHDp0qWGDRtGRUX5+/vn1wgAAABPJ8myA99fSW1TLRfkXSU0c3T0Gdjy+3qv7btz9AjBHCj2iv0TXbH/AR3N/R9AVz0JZGZmNmvWbPv27cHBwc2aNVu/fr1lMaPZbP7uu+9+/PHHffv2ZWZmLlu2rHr16nk22r4vT0+WHT2LbJ8DjxZK5nf/P//88xtvvPHdd98dOnRozJgxe/bssXzAkJmZ+c033xw4cGDv3r1VqlRZtmyZt7d3no02/oDu7zEPsaOPYAG76Nu3b+/evbt27TpgwICOHTv26dPH0n78+PHk5OSDBw+eOHHi3//+d6dOnfJrBAAAgEdjjaFnc1o1Xrgt5gAAD+Xr69uhQ4d169aFh4fXrFnT+jV5hUIRExMTExMjhHj99dcTEhLee++9PBtt2csDz408JT4ye611zS0yMlKW5QMHDqxbt65nz56WZFkI4evrGxcXFxcXp9PpYmNjv/nmm549e+bZ+Dh7L2kccQSFEHFxcUlJSU2aNDly5Mgnn3xiba9fv379+vWFEGvXrrXmyHk2AgAAwKMRLhcTTqjIDDfHHADgcXr37j1+/Phy5crFxcVZGy9fvhweHm657OXlZTQa82ssFMmyXTgolBRCSJLUq1evFStW7Nmz55tvvrE03r17V5IkS80E1V/ybHz8AZQQjjuCQogOHTq8+eabc+fObd++vZ+fn6Ux9y+st7e35WDl2QgAAABPx6u6YoVFrGAOAPAgDRs21Gq1v/7665IlS6yNL774YpkyZSpVqnT16tWbN29aNuXZWICH0zSe/R6BQ0NJix49esybN69p06YVK1a0tFy5cmXIkCE1atQoVarUL7/8Eh4e3qFDhwsXLjzcaMdhFFdOOIJeXl6xsbErV65cvXq1tfHDDz88fvx4zZo1dTrdiRMn3nzzzfwaAQAA4OkIl4snFrGCOQDAIyQkJGRnZ/v4+Fhbvv/++8uXL9+8eTMwMLBq1aqSJOXXmB8WLD8+J4SSFmFhYUlJSaVKlbK21KpVa8+ePRcuXEhPTy9XrlzZsmXza0QBnHYEhRBjx46NjY1t0qSJtWXOnDkpKSl//vmnVqutWrWqVqvNrxEAAACejnC5OGMRK5gDANxc1apVH24MDw+3fn2+4MbcnJmmFWPOfxgbNGjwQItSqXz4hI15NuJhzj+CpUqVyv3xgEVISEhISIgtjQAAAPBohMslQsGLWFESMAcAFGPEyvZCORFPxxEEAACAkxEulyD5LWK1NvL2o9hjDgAoQLH5tImnMruw48N4Pinl3qV4e90lCmffXwQOIgAAAPJEuFwSUY0XzAEAxRJPX3bBw+jpOIIAAABwGsLlkqvQOgnOf2eyYMGCTZs2mc3munXrzp49O/f5neAI7jYHNmzY8Omnn6akpHh5eb344ovDhg1z5t4BAPZ92k+O+OvvS7WUB1pizpF+OoTd/3DndxA5ggAAALAgXC7pCqiT4ORFrDt37tyyZcuGDRv8/Pz+9a9/LViwYOLEic7ZdQnnPnMgODg4ISGhUqVKV69e7d69e+3atVu0aOGcXQMlmcsXOXKKUZfjkfd0HEEAAAC4isLVA4C7OBcvW/490B6xWLL8s+O+tmzZ0qVLF71eL4QYNWrUggULhBC///5748aN/fz8hBBt2rTZuHGjHfcIWzhzDkydOnXGjBlCiPT09DZt2uzbt08I8Y9//KNSpUpCiHLlyj3xxBNXr1614x4BAAAAAABgX4TLeFCe8aL4K2G0yy5iY2MbNGgwa9asZcuWpaenjxo1SghRt27dn3766fbt2yaTacuWLTdv3rSkz3A+J8yB6dOnHzp0aMuWLRMmTOjWrVuzZs1yb/3tt99+++23Vq1a2WVfAAAAAAAAcATKYiBv+ZVKsNeXl6dOndqtW7dvv/128+bNCoVCCNGmTZsLFy4MGjRIo9G0atVKoVBY2uEqDp0DGo3mo48+6ty5c/369UeOHJl706VLl0aOHDlnzpzQ0NBHvn8AAAAAAAA4GuEyClHwOd8eOV68fft2WlqaEOLOnTulSpWyNA4bNsxyDrddu3ZVqVJFpWJ+ugUHzYFz5875+PikpKTo9XovLy9L4x9//DF48OBp06a1bt36MYYMAAAAAAAAhyO8g03su4jVZDKNGTNm3Lhx/v7+o0ePXr9+vZeXlyzLly9frlix4vXr1+fOnRsfH2+vwcMu7DsHrly5Mm3atM8//3zlypUzZsz497//LYQ4e/bssGHDZs6cGR0dbadRAwAAAAAAwFEoO4CisUs13nfffbdq1ao9e/Z87rnnoqKipk+fLoSQZXnEiBFRUVHdu3fv0qVLz5497Tlu2M/jzwGTyfTKK6+MHz/+iSeeeOONN06dOrVhwwYhxPvvv3/jxo3Jkyc3b968efPmK1assPPQAQAAAAAAYD+sXMajeMxFrJMnT7ZetiTLQgiFQrF161Z7jhKO9DhzQKlUrl271nJZrVZbkmUhxMKFC+0/UAAAAAAAADgG4TIei4Oq8cKDMAcAAHmKOffXn4C2qQ+2wENwEAEAAFAwwmXYgX2r8cITMQcAAAAAAABKGmouw57sUpEZHo05AAAAAAAAUEKwchn2xyJWMAcAAAAAAACKPYeEy9JfRdkeaJF3BTtid3BbVOMFcwAAAAAAAKC4sn+4/HCynHsT+XIJxCJWMAcAAAAAAACKHzvXXC4gWbaxA4oxqvGCOQAAAAAAAFBs2HPlso3BMeuXSzgWsYI5AAAAAAAAUAxwQr+8JUfkvYgy5hyZl904tBpvfkdQ2HwQmQNO4JI5wBEE3IT1l3SRteWdey38ngIAAACARyBchouxiBXMAQAAAAAAAE/kmnDZAyovV0t5oGHX+RCR1xLLR5Camrpq1aqRI0empqZ+/vnnLVu2bNSokRBCp9MlJCSMGTNGobBzLexH5g5lcB9tDNZ1cG0fOpTCxun39xtaJsAjj+cBzAEnjCHfOeD+zz9ACWP9JbU+0wIAAAAAPIK7BFglSkpKysKFCy0XPvroo4kTJ5pMJiGETqebP3++LLNIs/hjDgAAAAAAAMDTES67WEBAQOXKldesWePqgcBlmAMAAAAAAADwRK4piyHvCnbJfm2X36nAilr71Zav80+YMGHw4MHdunUr0j07hzNr3eb3WD3aGKxnhXr4S9aPeUI/5oDjOGcOcKIwAAAAAAAAu+CEfq5Xs2bN5s2bL126tH///q4eiwvYN0/0UMyBPNtL1BwAAAAAAADwOPYMl+Vdwbacqc/9ly073/jx47t06RIbG+vqgTgVkWJuzIHcSuYcAAAAAAAA8Cx2XrlcaL7sKcmyk784X758+W7dun300UfO3KmrOCdPfPwjyBxwHE+ZAwAc6v4v6V+vHPi1BQAAAADPYv+yGAXky56SLLvEyJEj27Rp4+pROBbLVAvGHAAAAAAAAIAHcUjNZWuIbE2ZiZVzCwkJefnlly0XRowYYWkMCgp69913f/nlF0kq/PxvnoU88WHMAYuSPAcAAAAAAAA8ncLVAyiJgoODR44cKYRo3779ihUrWrdu3bx582HDhvn5+b366qsKRb4HpV69enfv3nXOIK37epydRiyW8kwVz8XLJTxVtMyBc+fONWnSZNWqVdHR0dHR0RMmTKhRo0YBc+DEiRNOK8ps3ddj7pQ5AAAAAAAAUFw5ZOUybJeQkFCvXj2z2bx169b4+PiFCxc2b97c1YN6XCxTtZ23t/fu3buFENnZ2QsXLuzZs+fWrVtLlSrl6nE9LuYAAAAAAABAsUe47BYUCkVsbOyZM2cWLVpkCZePHj367rvvZmRkCCHGjBnTtm3b3P0nTpx48uRJk8lUpkyZf//732FhYZ9++ukff/zx1ltvCSGysrJatWq1ffv20qVLP7yvI0eOzJ49OzMzU5blV1999bnnnit4X0Vil0hxz549GzduvHXrVsWKFfv371+zZk0hhMFgGDhw4KJFi/z9/S3dXn755bFjx86cOfOBm4eFhc2dO/eRhu9K3t7e48ePP3DgwJo1aywL29evX//FF18YjUZ/f/+ZM2c+8cQT1s5paWmjR4++e/euXq9v0qTJjBkzlErl0KFDu3bt+vzzzwsh9u/f/+abb37zzTd57mvt2rXLly+XZVmpVH788ccVK1YsYF9F9fhzwGQyJSUl/fDDDzk5OfXq1Rs0aFBISIgQ4tixY1999dW7775r6XblypUpU6aMHTv2nXfeeeAeWrduPXz48Ef9CQAAAAAAAGATwmU30rBhw8TERCFEWlrapEmTVqxYERYWlpKS0r1794YNG+ZezTpp0qTg4GAhxOrVq+fNmzd79uzevXu3adNmwoQJgYGB69ata9WqVZ7Jclpa2ksvvbRw4cKGDRuazea7d+8Wui9b2HGZ6tKlS5ctWzZt2rRq1ar997//feGFF+bPn9+8eXOz2bx//36j0WjtefjwYZ1ON3v2bCHElStXBg8evGPHDiGEWq0u6k7dx9NPP3369GkhxP79+zdu3LhmzRqNRnPo0KHx48dv3rzZ2s3X1zchIcHPz89sNr/++uubN2/u2rXr4MGD582bZwmXv/jiiwEDBuS5i3379n388cdr1qwJDQ3Nzs6WZbngfdnIXnNAluVRo0bdvXt33Lhx/v7+Gzdu7NKly7p160JDQ+/cuXP8+HFrz+zs7IMHD9aoUcMyB7Zu3frDDz9YgmbrJxAAAAAAAABwHMJlNyLL92K4gwcP3rx5c9y4cZarGo3m0qVLuQPfXbt2bdiwwWQy6fV6y60CAgI6dOiQlJQ0bNiwL7/88uG1nNZ7rl69esOGDYUQCoUiKCgoOTm54H0VzL7VD1JTU997773Vq1fXr19fCFG9enWz2TxjxoydO3fm2V+SpMqVKz982XNZ50BycvKff/45aNAgy9X09HSTyZS750cffXT48GGFQnHjxo3SpUt37dq1ZcuWs2bN+uWXX8qUKXPgwIH33nsvz118++233bt3Dw0NFUJ4e3vbsq+C2XcO7N69+/Dhw99//72Pj48QYtKkSVeuXFmwYMGsWbPy7O/t7W057iEhIdbLAAAAAAAAcALCZTdy5MgRSwkIIUSVKlVWrlyZZ7fff/994cKF69evDw4OPnz48BtvvGFpHzhw4NChQ2vVquXt7f3UU0/Zvt8C9pUfB1XUPXToUFBQkCVZtoiJiZk+ffqNGzcCAwMf5549xdGjR6Ojo4UQsix36NBhwoQJeXb76quv/ve//3311VdqtfqTTz65ceOGpX3QoEErVqwoV65c9+7dvby8bNxpwfvKj4PmwE8//dSiRQtLsmwRExMzf/78x7lPAAAAAAAAOILC1QOAEEKYTKYtW7YsW7YsPj5eCNG4ceNLly4lJydbtp44cSJ3OYi0tLQyZcpYymJ8/fXX1vaIiIiqVatOnDhx4MCB+e2ocePGZ86cOXTokBDCbDanpqYWvK+HRSyW8kwVz8XLj3+utqysrAcKGgQEBFjaH/Oe3V9WVtYHH3xw/vz5uLg4IUTbtm3XrVt38eJFIYTJZDp27FjuzqmpqVWrVlWr1Xq9ftu2bdb2rl277t27d82aNS+88EJ+O4qJiVm/fr0lj87KysrKyip4Xw9z6BzIzs5+eA6UhAkAAAAAAADgcVi57GLx8fGWiLBOnTqffvppZGSkECIoKGjp0qWzZ8+eM2eOyWSqWLHi4sWLrTeJjIysVKnS4MGDg4KCKlSokPveevfuPW3atE6dOuW3u6CgoISEhLfffjs9PV2SpPHjx7dr166AfVk5aJnqAypXrnz58uXs7GxLuQYhxJkzZ9RqddmyZdVqtUajycjIsKTqQojMzMxiUFo3Ozu7VatWZrNZoVBERUWtW7fOUpMkMjJyypQpo0aNMhgMJpOpbdu2DRo0sN6qX79+48aNGz16tEKhqFu3rrXd29u7ffv2V65cqVixYn57jIqKGjly5IABA2RZ1mg0n3zyScH7snLaHPj+++9zt5w5c6ZSpUpCCD8/v8zMTGt78ZgAAAAUS8kReb9syC3mnD1fQgAAAMAlJGuNV4fce9tUywV5V7Dj9uLOrHmcfQO4/MycOTMwMHDs2LF2vE/nRIoWsix36dKlWbNmkydPFkLodLoRI0ZUqFDhrbfeEkL07NmzZ8+effr0EUIcOXJk2LBhBw4cUCqVQoiLFy+2b9/+999/t/uQHp8z54DJZOrateuUKVOioqLseLfOnAPXr1+PiYmZO3duTEyMEOLatWvdu3efNGlS586d79y507Jly40bN0ZERAghFi5cePTo0UWLFlluuGbNmu3bty9btszuQwLP5I+JB7BQPESF8vSHyNPH7wTu/xAVdYSOCJdlWfxw3BgWLNWupBRCGIzix1+N5UtJNcKVRbofAAAA2BErl4uJ27dv9+nTJyAgYPny5Xa5Q2fmiVaSJCUkJIwZMyY2NrZatWrHjx+vX7/+lClTLFtnzJgxevTo5ORkLy+vY8eOvfPOO5ZkGRbff//9tGnTnnnmGXslyy6ZA2FhYYsWLZo4ceKKFSv8/PyOHj364osvdu7cWQgRGBg4Y8aMgQMHNmzYMD09/cqVK9ZkGQAAeJzkCKlI+bLJLFq/lv5CG82Xk3yFEHcy5davpY+I1Sa86lPobQEAAOAghMvFRKlSpXbt2pW7JSUlZfTo0blbGjduPH78+ELvyiWRolX58uUt9X9v375doUKFsLAw66a6desmJyf/8ccfer2+atWq1tIZQoiwsLAVK1Y4YXju7B//+MeePXtyt+zdu/eTTz7J3dK/f/8OHToUeleunQPNmzf//vvvT58+nZOTU6NGDV9fX+umHj16dOjQ4cKFC15eXlWqVMn96ULr1q3zrOYBAACcL+acbMvi5aLmywAAAHA3hMvFVkhIyMqVK23v79o88QGVK1euXLnyw+0qlap69eoPt3t5eTVt2tTx4/IwLVu2bNmype393WcOKJXK2rVr57nJx8enTp06D7eHhoaGhoY6eFwAAOBBD4fIlrzYxnxpQLIVAAAgAElEQVQZAAAAHo1wGW4UKcJVmAMAAMAl8ly8rDeKk5dMWTq5XIiicpjC9ns79afpaopctaxNt8rIlv+4bs7IlkP8pWrllKq/l1szGMXFG+YbqeZgf6lmRaVC+tsma7nnu1nyyUumQF+pZsX7tz93xXzzjrlGuDLEX8rzVrfvymevmPy9pdqVlBIJPAAA8GSEyyUXeSKYA27CLIvlO3T7fjOplKJXtObZp3hmBtyL9VRmgKO5/2TLY4TVUqwXd50PEbadzS+33PmyziCmLsteuFmXmXOvpUqYYttsv1oVCz/Txsrv9IPnZEY3UK+d7ltwT1kWry3OXrhZl627txd/H+nzCb5dW6gtV/v/O3PjT4aM7Htbw4IVc+K9+8doLFet5Z4rlFK8tTJbZxBCiBZ1VBtn+t3JlPu+nfnfU0YhhEYl3n/JZ3QXbe5bDWmvlSSx6jt9SIB05Zb5iXDlysm+DZ/gPCIAAMBTEWGURESKYA64UOORdxvXVFnPPmSWRcc3MnYcNFiuJmzRffKKz8vPa103QAAAXEOWRfcZGVsPGHo8o3n5eW2lUMWfN83f7DfoDIXfdvaqnCnLsge10ywe56sqLKpN2KL7YG3OuB5eg9ppAn2la6nm/xw3emnud7iTKc992bt+VWWwv+Lkn6bpy7MHvptZJUzxTL37756+/slQOkBaM9WvUqhi3R79Wytz4udm/nbJ3KW5esFo7/Qs+dVPsscnZMVGqavkWkb9ZbKufRP1/1YHBvlJf1w3d56W0W5S+i+fBpQNKcICbQAAAPdBuFyC5JcnWpAqlgTMAZf79Q/ToTOmV7t7WVsSv9fvOGhoXEM59QXvW3fMk5ZkT/wsu3+Mxs+bb8kCAEqWLfsNWw8Y4qI1a6beW3r8RAVFoV/oMZrEyPlZn27VzRjg/X/9vQrubHHgpFGjEu+P8LaUpKgcpois9be9bJrlZ738RAVFZC1VpX5pi77R5Q6XM3PkY4sCQoMkIcTT1b13HjJu+NEwvqfXO8PunXR6/igpZkL62v/oX+t1f1RKpfTZP32D/CQhRJUwxSev+DwzLv2Ddbp3h98/VTUAAIAHIVwuEQpYplpw2ohigzngJo6eMwkhcr9PXrVbr1KK9TP8KpZRCCGC/KSeb2buPmZ8PkrtslECyIe8K9jVQ0Dx5P5Ty1oN4+GhJkdIbXNVxhB/ndBP2Fwfw9p/8z6DEOK1XkX4+k5Gttx5ekbyYcPy130HttMUfgMhhBB1qij1RjHsg6wRnTSNaqiUeS0aNprEyT9N11Nlg1EWQoQFK365YMrd4R/1VZZk2aJBNeV/Txnjou//+X4qQimE+OOaOfetWtZVlQmUcl8tHSjtPGggXAYAAB6KcLk4o/QBmAPu5lqqWaMS5Uvdfxf78+/GqNoqS7IshIiN0giRefZ/JiEIlwEAHiDmnCz+ip5zn5qvqMmyEOLyLbMQokZ4EQoQr96tN5nFmK5a25NlIcQr3bwuXDMv3a5ful3n5y21rKsa1E7T+x/37+H9tTlvfZWTmiELITQqIUlCbxQa1d9C6PKl/3bV10sIISrk+hNvacnI+duLrvKlHnxYKpRSXLltFgAAAJ6JcLl4IlIEc8BtmczCLAulJIQQl2+ab6TJ/WPuPxVr1SLAR8rWu2x4AAA8vkdIloUQ3hohhEjLkAN9bf1a1Ysxmlt35I++1tUIV1pPnVcojUp8PMZnTrz3nhPGH381Jv1g6PNW5u+XTDMGeAsh1u3Rv7You9+zmukvekWUV1oqOD859K7eaIcXUSl3H7yT2+myt5avkQEAAE9FuFyskCeCOeDmKocqTGZx5KypcQ2lEOL740YhRNNa95do6Y0iI1sOC+JNJgCgmHsgWRZCNKqhWr/X8N1R4+DnbF2G7KWRNszw7Tc7c8xHWZk58sTeNtVctvDRSs81Vj/XWD31Be+ag+4s26G3hMs7DhqFEPNG+ljrV9zJlM9eMVUKtcM59w6eNumNQvPXm7CL181Xbpk7NOXrSgAAwFNxVuJiImKxlGeqeC5eJlUsIZgDHiG6gdpHK435KOv3S6bfL5neXpmjVYu2je6/pTxy1miWRZWyRfhGMAAAxcOQ5zR+3tKUpdnHzt+vbpySLqdlFPRKRq0Sq6f49o/RTPose/qKbFt29N1R492s+/eZrZN1BqH966+xpZLy4TNGy1WdQYycn2UwFvGHycfVFPOsL+8N0mAU4xOyzLIY0r4IZaYBAADcCiuXPRvLVMEc8CxlAqV/9tLO+jLnyaF3LS2vx3kF+90/iOv3GrRq0exJwmUAgAd7eFWyLcqGKBKn+vaaldlk1N2o2qpKoYort80//WpMfte/Zd2C3rYoFWLFBF8fL2nWlzlZOeK9EYWcHO/NL7IPnDI1qaGsHKbQG8Xuo4bbd+V5I30tW4e01y7YqOs8LaN9E7WPl7TvN2O5EEWdKsocvR1eXHVoql78jW7rAUOtisoDJ41nr5gHtNV0b8nKZQAA4KkIlz0VkSKYAx5q5gDvyqGKtXsMSoXoFKl+Kfb+YiVZFn9cM4+I1fpQexEAUCJ1aKo+tSxgyXb9odPGW3fkKmGKQe18Gz2hFEJIkoiur6pd6d7nr2qViK6vqlHh3hcxJUkkvOpTJlDac8K4are+b+uCCmssGO2z/b+GY+dN11Nlfx9pWAftkPbaiPL37qpaOcWxxQELNupOXjLpDfK4Hl4vxWpf+TgrI1vOc9cW1Ssoo+urtJr7f8EVCim6vqpWxb99YFwpVPHpuID5G3XHz5saRKhmDFD3e7YIpyIEAABwN5IsOzCHkv46c7S8K9hxe3Fn1vjPXnmf3fPEh0d469at69ev16lTx9onJyfn2LFjkZGRQgij0Xj+/PmsrKwKFSqUKVPG0iHPRlgwB+DpeCZ/TDyAhXL/h8j9R+jmeACLgYIPIofYFrfuyGV6po2I1Sa86uPqsQAAANgNK5c9htOWqep0uj59+uzbt8/Pz8/Ssnnz5vXr169aterUqVMvvfRS1apV/f39T5482bt37yFDhuTZaN8hwYI5AAAAAAAAAPdBuOzunF/6oEKFCg0bNty8eXPfvn0tLYmJif369RNCzJ8/v0+fPiNGjLC0Z2dn59cIO2IOFHtmWSzfodv3m0mlFL2iNc8+xTMzAACP5dsjRoMx71dK5Usp6lfj3AYAAAD2QYThvlxYUTcuLm7JkiWWYPH8+fNnzpxp3769EEKtVp85cyYzM9PX11cI4e3tnV8j7II5UCw1Hnm3cU2V9SuxZll0fCNjx0GD5WrCFt0nr/i8/DxnjQcA4NG9MDszLcOc56Z+z2qWvubr5PGIfCo1AwAAeDpe3LidiMWS5d8D7efiZcs/J4yhXbt2Fy9ePHPmjBAiMTExNjbWEhe+/vrrqampTZs2jY2Nff/99zMyMvJrxONgDhRjv/5hOnTG1KLO/Q/2Er/X7zhoaFxDuXGm32fjfUoHShM/y7aeMggAADyCa4mBOVuD8/znkmRZCBHoK33/vv/4nl4u2TsAAICDEC67kTzzRPFXpOjMkajV6q5duyYlJZlMpg0bNsTFxVnaK1SosGTJkoMHD06bNu3QoUPjx4/PrxGPhjlQ7B09ZxJC5C58sWq3XqUU62f4dWmuHtpBm/CqT3qWvPuY0XVjBAAAAAAAsAllMVzPhaUPCtC7d+8XX3zx6aefLlWqVP369XNv8vb2joyMHDdu3Msvv1xwI2zEHCg5rqWaNSpRvtT9D/Z+/t0YVVtVscy9ltgojRCZZ/9nEkLtojECAAAAAADYhHDZldwzUrSoUaNGeHj4jBkzcgeFCxYsqFatWq1atXQ63WeffdasWbP8GmEj5kAJZDILsyyUkhBCXL5pvpEm94+5/1SsVYsAHylb77LhAQAAAAAA2Ihw2QXcIU9Mjrg3hkXWlnckIUTMuftjGDZs2Jdfftm1a1drS+PGjbdv375u3TqtVtuoUaMXX3wxv0YUjDlQYlUOVZjM4shZU+MaSiHE98eNQoimte6fs15vFBnZclhQ3jMEAAAAAADAfRAuO5U7RIq269ixY8eOHXO3NGvW7OFFqXk2Ij/MgRIuuoHaRyuN+Shr6Ws+Qoi3V+Zo1aJto/sVMI6cNZplUaWsMv/7AAAAAAAAcAuEy06S31nanD8SuApzAEKIMoHSP3tpZ32Z8+TQu5aW1+O8gv3uz431ew1atWj2JOEyAAAAAABwd4TLruE+kWLbaimWC7vOh7h2JCUNc6DEmjnAu3KoYu0eg1IhOkWqX4rVWjfJsvjjmnlErNZHS1kMAAAAAADg7giXnc19IkW4CnOghJMkMbSDdmgHbZ6b1kz1df6QAAAAAAAAHgHhspOQJ4I5ACHEiQumsiGKMoEsTAYAAAAAAB6PcNmxyBPBHEBu6/boZ6/K6dpCM7yjps3TaomQGQAAAAAAeCyFqwcAACVIy7qqGuHKxB/0bSdmRAy48/aqnKspZlcPCgAAAAAA4FEQLgOA88Q0VJ/4NGDffP+hHbQ378hTlmZX6neny/SMLT8bTITMAAAAAADAo1AWo4SKOfdXrYa2qQ+2oGRgDrhQVG1VVG3VvJe9V3+vX7JNv2mfYdM+Q4XSiiHtNUPbayuH8bEfAAAAAADwAEQYAOAaft7SsA7affP9f/k0YGx3bY5envVlTrX+d9pPzjhw0ujq0QEAAAAAABSCcBkAXKxOFeXcl32urAn6YpJvsL+046Bh6wGDqwcFAAAAAABQCMpiAIDrnfzTtGSb/vNdutt3ZUkSoUF88gcAAAAAANwd4TIAuExmjpz0H8NnW3U//moUQpQLUUzuqx3WQVutHOEyAAAAAABwd4TLAOACB04al2zXr9qtT8+SFZLo2FQ9vKM2NkqtUrp6ZAAAAAAAALYhXAYA50lJl79I1i/ZpjtxwSSEqBym+GdPr6HtNeFlWKoMAAAAAAA8DOEyADjP/A05M7/IUatE95bq4R217RqrFZKrxwQAAAAAAPBICJcBwHkqhyn/Pcx7UDtNWDBLlQEAAAAAgGcjXAYA5xn8nMbVQwAAAAAAALAPwmWghJLapubZIu8KdsVw4HaYIXA05lixxyEGAAAAij2+lw2URA+/4bdlE0oOZggcjTlW7HGIAQAAgJKAcBkocQp9V8/b/hKOGQJHY44VexxiAAAAoIQgXAZKFhvfz/O2v8RihsDRmGPFHocYAAAAKDmouQwALpMcIT3QEnNOdslIAAAAAAAAioqVywAAAAAAAACAIpNk2YGr5KxfeOS04G6LL6UCAADARnm+quc1PwAAQInFymUAAAAAAAAAQJERLgMAAAAAAAAAiowT+pV0fHuxpLG9EApzwwnc8IR+zBC749viD/DEOcZBLBJPPMQAAAAAHg3hMgC4jMujZAAAAAAAgEdGWQygZLFxmRiryUosZggcjTlW7HGIAQAAgJKDcBkocQp9P88b/hKOGQJHY44VexxiAAAAoIQgXAZKogLe1fOGH4IZAsdjjhV7HGIAAACgJKDmMlBC8d4eBWOGwNGYY8UehxgAAAAo9li5DAAAAAAAAAAoMsJlAAAAAAAAAECRES4DAAAAAAAAAIqMcBkAAAAAAAAAUGSEywAAAAAAAACAIiNcBgAAAAAAAAAUmcrVAwAAAACAYkhqm5pnu7wr2MkjAQqwerc+YYtudBdtz1aah7d+f8w44/PsuGjNyM5aIUTs1IyMbFkIIUnCRysF+0u1KylbN1A1r/NgtmB7TwCAR2PlMgAAAADYWX7JcsGbAOeLelK154TxvSRdnlsXbMz54bixSU2l5ereX4wHTpmC/KRAX8ksi98vmd78IrvF2PSGL989es6U+4a29wQAeDQ+MwQAAAAAeyo0PpbaprJ+GW6iSpgipqF65yHDr3+Y6lRR5t50I03e/LOhQTVlk5r3o4PQIGnjTD/r1fQs+aOvdTM+z/7HP9P3zfevXUn5CD0BAJ6LlcsAAAAAYDc2Lkxm/TLcx/COGiHEZ9seXLy8YqfOYBTDO2kLuK2/jzS5r9f8UT53MuXXFmXbpScAwIMQLgMAAAAAUHJ1aa4JDZK+/FavN/6tfcl2vbdWeuHZPGoxP2BYR235Uort/zWkZcj26gkA8AiEywAAAAAAFE/JEdID/x7uo1aJge20t+7IX/+ktzbuOWE89aepVyt1kF8eN3mAUiGa11GZZXHsfCH1lG3vCQDwCE6qucx3vgAAAOAIvM50HxyLouIRgzNUS8l9bdf5kDx7DeugmZOY89lWfa9W99YpL9muE0IM71hQTYzcQoMkIURKeuHrkW3vCQBwf6xcBgAAAACgRKsRroyur0o+bLh0wyyEuJslJ/1gqFVR2bKurSvScvRCCOFdeAmNIvQEALg/wmUAAAAAAEq64R21Zlks3a4TQqz8Tp+lky0n+rPRyT9NQohKoYWHDLb3BAC4P8eWxZB3BTv0/gEAAAALXnm6irW2A4fAwvZiFzxicAJLkeW2fy+Okacez6jHfCQt26Gf3t/7s606jUoMaGtrTYwL18z7fzeWC1HUrqS0V08AgEfgo0IAAAAAAIqnmHNyzDk599X8enpppBdjNJdumN9LzDl0xtS1haZ0YOGn8hNCpKTLL8zONJnFxD5eUoG3sL0nAMBTOOmEfgAAAABQEsi7gm1ZvMyyZbih4R21Czbq3liaLYTIryaG3iAOnjYJIfQG+Uaa/NNvxhU7dTfS5CHtta901T5aTwCA5yJcBgAAAAB7KjRfJlmGe6pXVRlZS7X/pLFqWUWbp9V59rmaYm4y6q71qpdGalVPNaqLtnOzB/vb3hMA4LkIlwEAAOzvz5vm5Tv0P/1mvJ5qliQRFqxoUUc1+DlN+VIUJQNKhALyZZJluLOVb/heumEuGyLlWbZiy7/8jCYhhJAk4aURIf6KqmUVqryKJ9veEwDg0SRZzrfiEgAAAB7hZGWLtuhe+ThLb3yw3UsjLXzVZ1C7vL9ojKJ64CxVu86HWC4UUFEUjsAJ/QrFQwSXYxICAByElcsAAAD2tOOg4aUPswJ9pcl9tR2bqiuFKmQhLt0wf7Pf8OF63ZD3MiuHKlo/xWswAAAAAB6PNzYAAAD2NGVpdpCftH+Bf43w+9/+LReiiKyl6ttaEzUmffKS7J8X+LtwhAAAAABgF1T9AwAAsJsL18yHzpje6OuVO1m2ql1JObGP1/6TxovXzc4fGwAAAADYF+EyAACA3Rw6bRRCdGuZb1Xlbi3UQohDZ0zOGxMAAAAAOAbhMgAAgN1cviUrFSKiXL4vsSwrmi/fZOUyAAAAAI9HzWUAAAC7yciWfb0kScq3g1IhfLTS3SzZiYMq5nadD3H1EAAAAIASipXLAAAAdmM0yQUkyxaSJIwmwmUAAAAAHo+VywAAAPakN4rlO/UFdCBZBgAAAFA8EC4DAADYU7ZOHjwn09WjKBFizslCiIjF99aKn4sntQcAAACcinAZAADAbto3UQf5FV52LKq20gmDAQAAAACHIlwGAACwm6jaqqjavL4CAAAAUCJwQj8AAAAAAAAAQJGxsgYAAMD+/rxpXr5D/9NvxuupZkkSYcGKFnVUg5/TlC/FR/sAAAAAignCZQAAADtbtEX3ysdZemPuNtO2A4Z/fZWz8FWfQe00rhoYAAAAANgR4TIAAIA97ThoeOnDrEBfaXJfbcem6kqhClmISzfM3+w3fLheN+S9zMqhitZP8RoMAAAAgMfjjQ0AAIA9TVmaHeQn7V/gXyNcaW0sF6KIrKXq21oTNSZ98pLsnxf4u3CEAAAAAGAXVP0DAACwmwvXzIfOmN7o65U7WbaqXUk5sY/X/pPGi9fNzh8bAAAAANgX4TIAAIDdHDptFEJ0a5lvVeVuLdRCiENnTM4bEwAAAAA4BuEyAACA3Vy+JSsVIqJcvi+xLCuaL99k5TIAAAAAj0e4DAAAYDcZ2bKvlyRJ+XZQKoSPVrqbJTtxUAAAAADgEITLAAAAdmM0yQUkyxaSJIwmwmUAAAAAHk/l6gEAAAAUK3qjWL5TX0AHkmUAAAAAxQPhMgAAgD1l6+TBczJdPQoAAAAAcDjCZQAAALtp30Qd5Fd42bGo2konDMYiYnFhdTqKi5Lwk56LZ9k7AAAA3AjhMgAAgN1E1VZF1eb1FQAAAIASgTc/AAAAdpOeJfv7FP/1s3BbaWlpp06dsl5t0qSJQsEZvAEAAOAohMsAAAB28/7anE37DMM7avs9qwn0da+UmYoKnsv2ih+HDx+eMmVKs2bNLFcbNWpEuAwAAADHIVwGAACwm/AyihMXTCPnZ722KDsuWj28o7Z5HV5uwSGOHDlStWrVoKAgIcTZs2e1Wm3FihWFELVq1frggw9cPToAAACUCCxkAAAAsJthHbR/rgycPdS7Qmlp+U59i7HpdYbdnbsu5/ZdVg3Dzk6ePPnyyy+bTKazZ88OHDhQku6tbjYajefPn09LS3Pt8AAAAFASEC4DAADYU9kQxaQ+XqeXB+5+z/+FNprzV83jE7Ir9Enr+3bmd0eNMiEz7KRv375hYWFvv/326NGjZ86cGR4eLoRQKBS3b9+eNWtWbGzsyJEjdTqdq4cJAACA4kySeYsDAACQP6ltquWCvCv4EW6eliF/9Z1+yTbdkbMmIUREecWwDtoh7bWhQU6qyGwt1+vpNZcHDx7cunXrAQMGWFu6des2ZMiQ559/PjIyUqVSaTQanU735JNPDh8+PDIy0tKngE0eJL+DmJGR0axZs+eee+6999574CZGo3HAgAHPPvvssGHDHD28x/wdKQl4iOByTEIAgIOwchkAAMCBgvykUZ21hxcGHPwk4KVY7Y00efKS7E825bh6XJ6nd+/eSUlJ1qunT5++ePFiu3btLFcTEhJ27969d+/erl27xsfH//TTT9aeBWzydCtWrKhTp86+ffuuXLnywCaVStWgQYOrV6+6ZGCwSI6QLP8KaAEAAPBohMsAAAAOZzKLaynm66nmHL0shLCWx4XtYmJirl+//ttvv1muJiYmdunSRavV5u6jUChiY2MHDRq0aNGiB25ewCYPtX///rVr1y5atGjs2LFjxowxGo1CiOTk5J9//vnMmTObN29OTExs06aNq4cJAACA4oxwGQAAwIHOXzVPXZZd+YU7sVMzNvxoaFxDtfQ139fjtIXfEn+nUqm6detmWbxsMBg2btzYq1evPHs2bNjw9OnTRd3kWUwm0+rVq+fNmxcYGNirV68mTZps27ZNCGE2m1euXPmvf/1rz549H3/8cfPmzV09UgAAABRnKlcPAAAAoBjK0csbfjR8tlW3+5hRlkWIv/RqN+3wjto6VZSuHpoH69WrV+/evSdPnvztt9+WL1/+ySefzLNbAecUKTanG1EqlXPnzrVenTRpkuVCu3btrKVCAAAAAEcjXAYAALCnY+dNS7bpvkzWp2bIkiSi66uGd9T2eEajVbt6ZJ6vevXq1apV27Vr17p16+Li4vLrduTIkZo1axZ1EwAAAICiIlwGAACwmw/W5vxzUbYQIixYMbG3dlhHbfXyVCGzp7i4uEWLFl24cGHevHkPbzWZTNu2bVu2bFlCQoLtmwAAAAA8GsJlAAAAu8nMEe2bqId31D4fpVbzOssBOnXqNGvWrJiYmICAgNzt8fHxarVar9fXqVPn008/jYyMtGUT4By7zoe4eggAAAAOwZseAAAAu3mjn5eSlcqO5OPjc/z48Qca9+/fn1//AjYBAAAAeEyEywAAAHZDsgwAcB9S29Q8W+Rdwa4YDgCgGCJcBgAAAAD7izknWy5ELJYsF87Fy64bDkqch5Pl3JvIlwEAdsHqGgAAAAAAipUCkmUbOwAAYAtWLgMAALij5Agpz3brWkgAAPJkY3DM+mUAwOMjXAYAAHCUhwNiomEAAAAAxQZlMQAAAAAAAAAARcbKZQAAAAdqWy3l79dtrnH5wA2F2HU+ROQ6M9hjioyMVKlUGo1Gp9M9+eSTw4cPj4yMtMs9Ax6HE+6hxKLysruhUAkAj0O4DAAAUEIlJCTUq1fPbDZv3bo1Pj5+4cKFzZs3d/WgAFciZQYAACgSwmUAAIASTaFQxMbGnjlzZtGiRYTLgIUlZSZiBgAAKBjhMgAAgANZallY2X5Cv4dPBmhR1LTLxjIaDRs2TExMLNI9A8UeC5lR7FGEwU1QnwSA5yJcBgAAcBTbo2SXk2WPGSrgOJYQ+eGPZEiZAQAA8kS4DAAAAHHkyJGaNWu6ehSAW7AmyKTM8FDyrmBbVsKybBklWX5fEcvNg1YJAC5EuAwAAOCOnPZ+xmQybdu2bdmyZQkJCc7ZI+ApCk2ZiZjhtgrNl0mWAbuTZfHDcWNYsFS7klIIYTCKH381li8l1QhXunpogAMRLgMAAJRQ8fHxarVar9fXqVPn008/jYyMdPWIADdFuQx4ogLyZZJlwBbJEVKRPuw3mUXr19JfaKP5cpKvEOJOptz6tfQRsdqEV30cNsYi2/uL0Wi6d1mhEKUDpEqhCj9vm07RAeSJcBkAAKAk2r9/v6uHAHgYymXA41hDZGvKTKwMWMSck22pjFHUfNn9xU7NuJP5t59IrRI9n9HMfdk7LFjhqlHBoxEuAwAAAEARUC4DADzIwyGyJS+2MV8ufsqFKLa+7SeEMJvF9VTz0h36Vbv1N9LMye/6u3po8EiEywAAAADwKCiXAQDFXp6Ll/VGcfKSKUsnlwtRVA4rwoLfU3+arqbIVcvadKuMbPmP6+aMbDnEX6pWTqn6e+lmg1FcvGG+kWoO9pdqVlQqpL9tspZ7vpMpn75syswR/2hwLwPUqMVTEdb7UrZvoq70gnH3UaNZFoqSGLbjcREuAwAAAMCjs6VcBgDgcRR8gspCVEuxXtx1PkTktZa5YLnzZZ1BTF2WvXCzLjPnXkuVMMW22X61KhZ+1r6V3+kHz8mMbqBeO9234J6yLF5bnL1wsy5bd28v/j7S58sWKn4AACAASURBVBN8u7ZQW672/3fmxp8MGdn3toYFK+bEe/eP0ViuWso9D+2g1ajEp1t1SoWoWVF5bFFAnvvK0ctZOXL50gqSZTwawmUAAAAAsIMCUmYAQDEgy6L7jIytBww9ntG8/Ly2Uqjiz5vmb/YbdIbCbzt7Vc6UZdmD2mkWj/NVFRZEJ2zRfbA2Z1wPr0HtNIG+0rVU83+OG7009zvcyZTnvuxdv6oy2F9x8k/T9OXZA9/NrBKmeKbe/aDvy2Rdizqq35cGVi+vuHXn/uLrjGx5+U69EMJslm+kyat367P1YtFY76I9FsBfCJcBAAAAwJ4olwEAxdKW/YatBwxx0Zo1U+8tPX6iguLZpwrJ1owmMXJ+1qdbdTMGeP9ffy9bdnTgpFGjEu+P8JYkIYSoHKaIrPW3vWya5We9/EQFRWQtVaV+aYu+0eUOl7VqKWm6X4i/JIQoHXj/T9Ltu/LgOZnWqyqleD3Oq1Ok2paBAQ8jXAYAAAAA+7OlXAYpMwAUibwruKg3ye+EfnluypO1/+Z9BiHEa720tu89I1vuPD0j+bBh+eu+A9tpCr+BEEKIOlWUeqMY9kHWiE6aRjVUyrzqMxtN4uSfpuupssEoCyHCghW/XDDl7tCirsqSLD+gYhnF8cX3SmRcTzVv2md4Y2n2j78Yd7/vT2UMPALCZQAAAABwoEJTZiJmAHCch0/HZ1HUZFkIcfmWWQhRI7zw8spWq3frTWYxpqvW9mRZCPFKN68L18xLt+uXbtf5eUst66oGtdP0/sf9e3h/bc5bX+WkZshCCI1KSJLQG4VG9bcQukKpvM8ZqFCIIL97P3uQn/L1ispLN8wffa3b+KOhe0vWL6PICJcBAAAAwBnyS5lZyAwATvYIybIQwlsjhBBpGXKgr61LfF+M0dy6I3/0ta5GuHJ0F1uXPGtU4uMxPnPivfecMP74qzHpB0OftzJ/v2SaMcBbCLFuj/61Rdn9ntVMf9ErorzSUsH5yaF39ca/jVZpcwbeuIZKCN2h00bCZTyCvD/EAAAAeEw6g9h/0rhpn2Hzz4YDJ416o6sHBACPQafTNWzY8PTp09aWO3fu1K1b99q1a+fOnatevXrr1q2jo6Ojo6MnTJjw559/Wvrkt+lcvJxnjhyxWLL8c84PBQAowMNLnhvVUAkhvjtahNe1Xhppwwy/Hs9oxnyU9c6anCINwEcrPddY/eZA72OLA6qEKZbt0Fvadxw0CiHmjfSpWfFesnwnUz57xVTAXRXseqpZCKEgI8QjYeIAAAA7S82QR87PCu6WFjUmvcv0jM7TMiLHpAd3TXvl46y7WSzKA+CRtFptly5dEhMTrS1ff/1106ZNy5YtK4Tw9vbevXv3Dz/8sH379rJly/bs2fP27duWbgVsskTMBaTMjv+xAABFMOQ5jZ+3NGVp9rHz95PclHQ5LaOgl7hqlVg9xbd/jGbSZ9nTV2TbsqPvjhpzv2zO1sk6g9D+tao4NEgSQhw+cy/j1hnEyPlZhkddyfHHdfOCr3VCiLaNWLaMR0FZDAAAYE93s+SWY9N/u2jy95E6NFVXClXIsrh0w7z3F+OCjbr/HDfunefv501iAsDzxMXFDRgwYNKkSSqVSgiRlJQ0atSoB/p4e3uPHz/+wIEDa9asGTlypI2bKJcBAE6WXyHmgpUNUSRO9e01K7PJqLtRtVWVQhVXbpt/+tWY/K5/y7oFJWxKhVgxwdfHS5r1ZU5WjnhvhHfBO3rzi+wDp0xNaigrhyn0RrH7qOH2XXneSF/L1iHttQs26jpPy2jfRO3jJe37zVguRFGnijJHb9MPdSNNjp2aYb187JxRbxTjeni1qkdIiEfBvAEAAPY0dVn2bxdNLz+vfWeYt7/P/ZTkTqb8+uLsT7fq/u/znPcLez0NAG6odu3a5cuXT05Obt++/W+//Xb16tU2bdrk2fPpp5/OXUDDxk3irxA5v/P+CVJmAHC1Dk3Vp5YFLNmuP3TaeOuOXCVMMaidb6MnlEIISRLR9VW1K90rdaxWiej6qhoV7tUMkCSR8KpPmUBpzwnjqt36vq0LOr/fgtE+2/9rOHbedD1V9veRhnXQDmmvjSh/766qlVMcWxywYKPu5CWT3iCP6+H1Uqz2lY+zMrLlPHedW8u6qoxs2dJTkkTpQGlErLZXK80zJMt4VEwdAABgN9k6eflOffsm6k9e8XlgU6CvtHicz4Vr5iXbdG8N9vLSsHgZgOeJi4tLSkpq3759YmJi9+7d1eq8v0Es/z979x3W1PXGAfwkIQl7CMoQRJaKoOIqCooi4Ki4BRT3QFEqVuuse8+i4raOOsABgqNuXHUrapWKdYDiQJApIBCyfn9cG/ODJAQISYDv5/F5vDnn3HtP7gkZb07eI5QaApZRJSJtIjNBlBkAQA00NKEvHK5ZtpxBJ9d+0xPdNNChid+kLBst1xyLFjaMFjay1uNrbEovNV1j58/f335LPDXlz+W68nQAQH7IuQwAAAAKE/+Sn18onDZI6kLYPw9kf/kqfPSq8uuNAACoUN++fR88ePD+/ftTp075+flJa/b33383bdq0olVlISkzAAAAqDnMXAYAAACFef6OTwhxay71DYabkwYhJPEdn9oAAKhZ9PT0unfvPmXKFFtbWwcHh7INCgsLd+zYkZycvHXrVvmryoV0GQAAtczlxzwuT/JTt4UxvaWtrGnLAGoFn+sAAABAYXIKhFpsmoz1+ox0aUwNkpOPIAgA1FT+/v5Dhw5dsWKFeGFRUZGHh4dAIKDT6R06dDh+/LixsXG5VRWFdBkAALXGsFVfcwsEEqsCu7H2ztBRcn8AKg3BZQAAAFCY4hLCKu/NBUuDVshRSm8AAKrBDz/8kJSUJF5iZ2f3+vVriY1lVFVFuVFmhJgBANRc2jEDVXcBQDEQXAYAAACFkWehKvmbAQCAbEiXAQAAAKqF4DIAAAAoUl6hsPHwLzIaFHIQ6QAAUCSkywAAAABVQXAZAAAAFEaTRdPXpuUWyAph6GvTNFlSkzIDAEClIV0GAAAAKBmCywAAAKAwc4ZozhmiqepeAEh14MCBJUuWxMfHGxkZqbov1S7OTuq3ON5JtSTCKO0+1po7WGlIlwGU738jttniJfgbAQAARUFwGQAAAAC+OXHixC+//FKqsHfv3uHh4RWqZbFYhoaGDg4OXbt29fPz09PTq9CpGQyGsbGxm5vbL7/8YmFhId7s5cuX4eHhT58+zcjIqFevnr29fZcuXcaOHVupuwtQyyFdBgAAAFQ3BJcBAACgWnC45O8kXnqOkEYjpoY0F3sNFt531BD9+/e3tbUV3XRwcJC/1s/Pz87Ojs/nZ2VlPXjwYMWKFXv27Nm1a5eTk5M8p6Z253K5//zzz8mTJ+/fv3/hwgVtbW2qNj4+fvjw4To6Or6+vubm5unp6Y8fP16/fr38weVhw4YFBASw2Ww52wPUDkiXAQAAANUEH/IAAABAwXIKhPP2Fv1xsaRIbO0+bTZtXC/W8jFa+tpIuKzuevfu3a1bt8rVdu/eXbw2Li4uNDQ0KCgoLi5OFCOWQXz3devW7dix48KFCwMGDKBKtmzZwmAwTpw4YWVlJdolKSmp3MOKMBgMBoMhf3sl4PP5UVFR169fLy4udnJyGj16tImJibTGZSODMuz8b8Pnv5/Df+eTU9F+yoNWPYeV5f/v2qXketRGhS6UNGfOnMnKyho5cqS0Bvfu3Ttw4ACPx/Pz8/P29q76GZVAWpQZE5kBAACgcuiq7gAAAADUKnmFwk4/528/zdFgkF4/MCf6sif0Zvdsz6TTyeYTHI9p+QVFiFzUId7e3j///HN6enp0dHRF93V3dyeEpKSkiEpSUlJsbW3FI8uEEDs7O9H21q1b7ezsXrx4MW7cuBYtWrRu3XrevHlfv34VNThw4ICdnV1OTo54+7dv306aNKlly5YtW7acPn26ePvqJhQKQ0JCTp06NXbs2NmzZ/N4vL59+3769ElpHQAZLCwsxCfpl/L27dspU6YMGzZs0qRJixYtevz4sTL7VnVJE4SIIwMAAEDVYeYyAAAAKNL8fUWJKfxJfdhrxmvpiU1S/vJVOHNX0e9nOYsOFP82UUuFPYRyff78WTyk27BhQw0NDTlry/L391+zZs2NGzdkzACV6MOHD4QQQ0NDUYmlpeXjx49fv35tb28vY8dx48ZNmDBh4cKFiYmJ8+fP//jx4x9//CG7/aBBg4KDg//9999ly5bp6OgsW7asQl2ttKtXrz569OjatWvUtO45c+akpqaGh4evWrVKOR0AGVJTU7Oysjp16hQbG5ufn5+bm/v8+XNnZ+fg4GAGg3H06NE+ffq4ubkRQkaOHBkREdG6dWtVd7nCZKTLkObatWtPnjwR3WzatGnPnj0V3zMAAACoIRBcBgAAAIUp4gj/uFjSsz1zW2jpBAgGOrRd07TfpAn2nOOsGKOpyUJyDPU1b9488ZtXrlyxtraWs7YsQ0NDU1PTd+/eyXPqrKysDx8+UDmXw8LCmEymj4+PqDY4OHjMmDG9e/d2dXVt3779Dz/80K5du7JpLnr16kUFsq2trYuKimbOnHnjxo3OnTtLO+mgQYMmT55MCGnVqtWrV68iIyMXL16snOwZt2/fdnd3F08Y4u3tvWHDBmntKzTVNG7Nt78yUbKI72dJUuSUVVE2DOElIwUeVh5xdpKfSSo6J1diaDU1NTUtLY3aiIiIOHjwYEhIyOTJk2NiYvz8/JKTkz09PamWTZo0uXTpUgX7XlMZGBiYmZlR29u2bRs1apRq+wNyKvs8AAAAoBAILgMAAIDCxL/k5xcKpw2SulrazwPZvvO5j17x3ZzwJkR9BQcHOzs7i27Wr19f/lqJdHR0CgoK5Dn1nDlzRNsNGzbcuXNnw4YNRSXu7u7Hjh3bs2fPzZs3b926RQgxMTFZtmxZ9+7dxQ/Sv39/0bavr++cOXOuXbsmI7jcu3dv0baTkxOHw/n8+bO5ubk8Ha6ioqIiPT098RJ9fX0+n6+EU0OF+Pj4UAlYPD09nz596ufnV1RUJFoZUlNTU5nZVJTm6NGjzs7O1GqcsbGxNjY2Li4urVu3puZop6amLl26dODAgaruJgAAAKgSPtcBAACAwjx/xyeEuDWX+gaDiiknvkNwWa21bdtWxpJ9smsl+vr1a6kQqjQhISEtWrQoKCg4ffr0gwcPmExmqQYuLi6bN28WCoXJyclXrlzZsWNHSEhITExMixYtRG3E49EsFqt+/fpUhg1pTE1NRdu6urqEkNzcXOUEl62tra9duyZe8urVq6ZNmyrh1FAhOjo61AaTySwuLiaENGjQIDMzkyrMyMho0KCByjpXbezt7UNCQk6cOBEfH79r166YmBjx2qioKC8vL/HENQAAAFAH4XMdAAAAKExOgVCLTdPVkprywkiXxtQgOflYRaoOycnJSU9PF5/sLIOLiwsVue7bt+/w4cOnTZt2+fJlKuArjkaj2dnZ2dnZOTs7Dx8+PDY2Vjy4XFJSIt64pKSERpOVhqVsrVCopIdov379Nm/efPXqVSrBQnp6+qFDh9atW6eQgys294V6UuF9dHd3P3r06Pjx42k02sWLFzt16qSqnlSftm3bBgYGTp48OSUlZf/+/Vpa39PlCwSC6Ojo1atXq7B7IA/R34go9wsWcgQAAMWiq7oDAAAAUHsUlxBWed9cszRohRyl9AbUQ1RUFCFERlYKiRgMxqxZszIzM/fu3SujGTXJNz09XbwwOTlZtJ2bm5uTkyM+l1mtmJqa7ty5c9GiRWPGjJkyZcrQoUOXLl36ww8/qLpfUD5fX18mkxkQEDBq1Kj3798PHTpU1T2qFkOGDElISOjcuXOpVTRv3rzJYDCo9QwBAACgLsPMZQAAAFAYOed7Km1aKKjc5cuXN27caGZmNmjQoIru27p16/bt2+/fv3/8+PHUkndxcXFdu3bV0Pj+DvbChQuEEFtbW/Ed//jjjw4dOoi2hUKhaOE1NeTm5nb16tWXL19++PDh0aNHHz9+VHWP4BtfX19qFnz//v0FAgFV6OHh4eLiQghhMpkHDx588eIFn89v1qwZnV47Z+38+uuv/v7+ly9fvnfvnqurq6j86NGjfn5+sn8TAAAAAHUBgssAAACgSHmFwsbDv8hoUMhBZLk2u3jxYlJSkkAgyMrKun//fkJCgrm5+a5du6jocEWNHz9+4sSJhw8fHjduHCFkzZo1c+fO7datm729PY/HS0hIiIuLq1+//ogRI8T3+vDhw8SJE7t27frs2bMjR4507txZzVMWMBgMR0dHR0fHtm3bvn79WiAQ1NZIZc0iyrstPvO9fv364otY1u4E2QcOHMjJyQkPD+/Tp09oaGhMTIyJiQkhJDs7+9q1awsXLlR1BwEAAED1EFwGAAAAhdFk0fS1abkFssLH+to0TRYmu9VaVBIMJpNpYGDQpEmT+fPn+/n5lU2aLCcvLy9bW9s9e/aMHDmSyWQuW7bszJkzDx48OHfuXElJiZmZWUBAQEhISKm11Hbu3Lly5cpVq1YxGIyAgIBff/1VAXdMKerVq4ecGKAm+Hx+YWHhxo0b6XS6i4vLggULEhMTPTw8CCEZGRkLFiwQXwkTAAAA6iwafpcKAAAAIAPNJ4faEF4yUm1PKqdOLeK0devWsLCwxMRENput6r4okpoPYk3/GyFqf4WVAFdAtZRw/THEaq4WPJFWN1wiALWFmcsAAAAAAAAAqocQMAAA1DgILgMAAIDCnL7LFQpJb1cmAwljoQyhUEgtj1aWhoYGg8FQcn8AANQWFWVGiBkAANQfgssAAACgMA9f8pYcLLYwpo/pwRrXi21jhhgzfJecnNy9e3eJVRMnTpw1a5aS+wMAoOYwkRkAANQfgssAAACgMMO92ZlfhBFXSlZEFq88XOzdhhn0I6ufG4uFdxxAiKWlZXR0tMQqMzMzhZwiJCQkJCREIYcCAFA+KogsiimLIMoMUKMlpQreZwiaWzMaGEpY1PrLV+Hj13xTI5pjIwYh5OY/PB6fEEJoNKLNJkZ6dBszusQfBcrfEqBa4aMeAAAAKIy9BX3LFO31E7Wib3B3n+XEPeJeesg1MSgc5cMe/yOrmRXyHtRpbDa7devWqu4FAIC6E0WQEWUGqB0S3vAHLC6Y1Ie9LVS7bO2Wk5z5+4p2TNWmgsu+8wu+fP2/P3BNFq1zC42Qvux+bkzxcvlbAlQrBJcBAABAwTRZtOFerOFerNepgj3nOPsvlvwWXfxbdHHnFhpBP7IHd2ZqsSXM2gAAAABx5UaZEWIGqBF8OzDN6tEjr5T8NlGr1NtgoZDsPc/R0aQN7cYSFZrXo59dqUsI4XCFn3OFt5/x9l0o6b+oYFR31r4ZOjSxA8jfEqD6YLo8AAAAVBd7C/qqcVrvIg1OLNH17cC8/Yw3cs1XiyFfjl2XvKobAAAAlJU0QSgxjmy3i0b9U36XAEB+Ggwyujvry1dh9A1uqaorf/OSPwkCurL0tb//IbOYxMWO4WLHcG2m0acDc9U4rX/36rs7aey/WLIxplh8d/lbAlQfBJcBAACgemkwSD835ulluqeX6Rrr03ILhIkpfFV3CgAAoIahQsyIMgPURON7sWk0succp1T57nMcQsj4XixJO31nqEs7NFdHg0HWHOUIZf5iQf6WAIqCtBgAAABQvfIKhYevlOw+x4l/ySeENDal/9AM70AAAAAqCekyANRKnF3pv0TvpNJ/g3YWdM9WGlf+5r36KHBo+G2iZ3a+MPZmiVNjRsfm5b83bmxKd22mcesZ71kK37mxrIVM5G8JoBCYuQwAAADV5UYCb/S6r+b+X4I3FT5J5g/2YF1YrZt80ODHH7DGCAAAQFVhIjNADRL0I5sQsvf898nLB+NKONxv5fJoasUghLz/LFBgS4Cqw7whAAAAULD0HMH+iyV7zpe8/MAnhDSxZIzvxRrdg13fAJ9yAQAAFKzcicwAoAQ+ttnUxqXkehIbDOjEMtYv3H+xZNloLQ0GIYTsOcdhM8kI73JyYohosgghpLh03uYqtQSoOgSXAQAAQGEeveIviyj68y6XxyeaLNpwL9b4H9ldWuL9BgAAQLWTEWUGAJVjM8lIH/aG48Vn73P7dmTe/5eX8IYf2I1VT0/eP9j0HCEhxFi//PbytwSoOqTFAAAAAIU5dafkxC2uYyNGeIh26lGDg3N0EFkGAABQMmnpMsh/GTOU3B8AoAT9yCKE7D7LIYTsPldCSAVyYvAF5PYzHoNOWtmWk0ZZ/pYACoHPewAAAKAwXVoy725mumK9PgAAAFWTJ10Glv4DUCbHRgx3J42z97mvUwVHrpU4NKTLPw9j55+cT9mCPh2YBjrlfD8kf0sAhcBnPwAAAFAYTxe8tQAAAFAv5UaZEWIGqArvJCEhhPjk/N9NKYJ+ZN96xhu8pCC/UDg/UJMmR/j3y1fh5hOcpYeKjHRp6yZoKaQlgALhEyAAAAAAAABA7SctyoyJzABK49eFOXUb7Ukyn6lBRnWXvJTf51yh7/wCQkgJj3zOESS+43N5pI0DY98MnaZWjMq1BKg+CC4DAAAAAAAAqLu///574sSJt2/fZjC+xYyuXbu2fPnyuLi4yMjIlStXNmjQoKSkREdHp0ePHsHBwdra2oQQiVVUEBnpMgCUT5tNmx2geSGe276phqmRhIXQOjlrFBQJC4qENBrRZNGcGjP8urC6uWh0bF46gid/S4BqhQccAAAAAAAAgLpzcXGpV6/e1atXvb29qZKoqCh/f39qu0OHDrt37yaEpKWlLViwYPz48ZGRkbKrkC4DQCXmDtWcO1RTWu2fy3XlPI78LQGqFYLLAAAAAOoozk5yEj7ZifwAAKAW8/f3j4qKooLLOTk5169fX7x4cak2ZmZmYWFh7u7ujx49atOmjTxVSJcBAACVhuAyAAAAVJey4VEERgEAACptwIABYWFhmZmZJiYmsbGx7u7u9evXL9tMT0/P3t7+5cuXpYLLsqvIf0FkpMsAAAD5IbgMAAAA1cjHNpvauJRcT7U9qTraf4uAK8l/l06EuoZlP/NXWl5e3uXLl9PS0ho0aNC5c+cGDRoQQn7//fe+ffuampqKt8zOzo6Li8vMzGzUqJGPjw+bzZb/IAkJCXfu3Bk1apT4XgAAUAmGhoaenp6xsbFBQUFRUVEzZsyQ1lIolBoFllFFKTddBkGUGQAA/iMhdzgAAAAA1Hr379/38vKKj483MDBISUkJDAx88+YNIWT37t2fP38Wb3n37t3u3bv/+++/BgYGly5d6tmz54cPH+Q8yM2bNydOnOji4oLIMgCAQvj7+0dHRz958iQ3N7dr164S2+Tl5SUlJTVt2rRCVWUlTRBS/8pW2e2iKfDLTgAAqLkwcxkAAACgzuFwOKGhofPnz+/Xrx9VMnnyZD6fL7Hl1KlTFyxYQLUcNmzY8uXL586de/DgwXIPcvbs2RUrVuzevbt58+bVf58AAOoEd3f34uLiRYsWDRw4kMFglG2Qmpq6aNEiZ2fn1q1by18lG9JlAACANAguAwAAAMgivGSkkvNKW9Cvoh/gJc4si4+PLykpEQWFCSGampJXLY+Pj+dyuX379hWVjBgxwsvLKy8vLyEhQcZBjh49evPmzUOHDtnY2FSowwAAIAONRhs8ePDGjRs3btwoXn7nzp0uXbqUlJTo6+v36NEjODhYnqoKQboMAAAoC8FlAAAAgDonMzOTSo4sZ0sa7XscwdTUVCgUZmZmyj7ImTNnBg0ahMgyAIDCTZkyZcqUKeIlgYGBgYGBEhvLqKq0cqPMCDEDANQdyLkMAAAA1cU7SSi+LX4TVMvExCQ9Pb3cNZ2olp8/fxZvmZ6eTqPRjI2NZR8kLCzsxo0bYWFhCus0AACoGdkZmZGUGQCgLsDMZQAAAAB1VK2x+Hbt2rFYrJMnT/bv358qKSoqEggEOjo6ZVtqaGicOnVKlP7iwIEDHTp0MDAwkH0QExOTyMjIYcOG8fn8mTNnVt99AQAA1UK6jKr4lgXLNvv/blbz2wBQoO95zP5/EDGCUHcguAwAAABQ57DZ7PDw8JCQkHv37jVv3jwjI+PcuXO///47FRe+dOlSYmIi1bJnz54bN26cMmXKkydP7O3t79+///jx40OHDpV7EEKIsbFxZGTk8OHD+Xz+nDlzVHVnAQBAOZAuAwCgDkJwGQAAAKAucnV1vXz58pUrVz59+mRtbR0ZGVm/fn1CyPjx4wsLC9PS0qhmPB7Pzc3t4sWLcXFxWVlZXl5eq1evFi3cJ+MgVDrmevXqRUREHDp0KDk52dbWVkX3FWotaeteYr6Ycki7/qTODAGugDRUEBkTmQEA6gIElwEAAADqKAMDgwEDBpQqDAoKKtvS2Ng4ICCgcgcxMjIqtfAUAADUBUiXAQBQFyC4DAAAAAAAAADVBekyAABqMQSXAQAAAKDC4uLi9u7dSwjR0dFp1arV2LFjtbW1xcspjo6OCxYsEAgEx44du3HjRmFhoaWlZUBAgLOzc9mWDg4Op06dKnWiyZMnd+rUSSn36TsOhzNhwoT169dTWT4IITweLygoaNWqVWZmZrdv3z5+/HhWVpaxsbG3t3evXr0IIRIL6xqaT46yT/nf6kmUS8n1qI2yAazqc+bMmaysrJEjR8rZPjU1lcfjNWrUqFp7JVFBQcHbt2+dnZ1ltKnQpdv534bP/w8EIYQo/8GgEmXuuGIfhOvWrfP09GzXrp20BkeOHLl48aKRkdHEiRObNGlS9TNWN2lRZkxkBgCouRBcBgAAAIAK+/z5M4PBWLduXW5u7sKFCz99+rRixQqqnEajrVy5kmpGZWfevn37jRs35s6dq6en9/z58+zsbIkt2Wx2x44dCSErV660sbEZOnQoIUQU3lUmNputq6sbGxs7YcIEqiQuLi4zM9PMzOzBgwczZsxYvXq1tbX1aTGgiwAAIABJREFU+/fvP3z4QAiRWAh1RGpqqihHuTxOnTqVk5Mzd+7c6uuSNK9evVq8ePHJkyeVf2qonObNmxsbG0urjYmJiYiICAsLe/78+ciRI69cuUJ9yVcjSEvKDAAANQ6CywAAAABQGWw228zMzMzMbNiwYTt3iqYwEi0tLWtra/GW8fHx/fr1a9WqFSFEfFm/si0NDQ0JITo6OoaGhqWqlCwgIGD58uWi4PKxY8f8/PwIIQ8fPmzfvr2HhwchRNRDiYVQ03348GHHjh0fPnwwMDAYPXp069atCSFXr149depUYWGhp6env78/nU4X30Vi7dWrV0+fPp2bm+vs7Ny/f/8jR45wudyEhARPT0+JKc4r4fHjxxEREQUFBZ07dw4MDKTRaI8fP46Li5s5cyYhJCUlZceOHatWrVq5cmVycnJgYKCpqemGDRsUcmqoVomJiaampjY2NitXrmzXrt3t27fT09N9fX179+5NCDl06FBoaKiDg4ODg0NsbOzZs2cHDx6s6i5XjIx0GTIUFhbu3r37yZMn2traffr06d69e/X0DgAA5ILgMgAAAABUSVJSkpOTk+hmQkLCxIkTqW1PT88hQ4Z4eXmFhYW9e/euTZs2HTp00NPTk9ZSyT2XoVOnToWFhY8ePWrTpk16evr9+/epYFznzp23bds2Z84cV1dXV1dXCwsLaYV1h/CSkapOHWcnOSBV0V/WSwxszZkzp0+fPjNmzMjIyKBK/vzzz9OnT8+ePZvNZq9Zs6aoqGjMmDGi9hJrT548SQV2zc3N//nnH1tb2yFDhih25vKLFy+Cg4M3bdpkbm7+66+/5uTk/PTTTzk5OS9evKAafP36NSEhgRDy66+/Ll68ODIyUsbRKnTp4tZ8u26iXBAi3kl1IrmBtEcgqeCVlBZaffHihYuLCyHk+fPniYmJ27ZtEwgE/fr1c3Jyaty4cXJysr29PdWyadOmb968qUjfa7BVq1bl5eUtWbLk8+fPwcHB9erVk5E5RP1Rfyy2/z0GvJEYpKYRPd1hEKHOopffBAAAAACgDCo0PGTIkCtXrixZskRUbmNjM/U/np6ehJDhw4fv2bOHyWTu27fPzc3tzJkz0lqqDzqdPnjw4KioKEJIdHS0t7e3gYEBIcTJyencuXN2dnbnz5/v0aMHldZDYiHUdLq6uk+fPk1OTra1tXVwcCCEHDx4sKSkZPv27Rs3bszLy7ty5Yp4e4m1hw4dmjFjhouLi6mpqZeXV3X08+TJkwMHDuzQoYO1tfXMmTNjYmKq4yygcoGBgfr6+oaGhq1bt3727BkhpLCwkEo9RAhhs9mFhYUq7aDicTicn376ifqaJCsra8KECdQ3PW/evHFzc7O0tGzTpo2lpWVubq6qewoAUKdh5jIAAAAAVAYVGv78+fPixYv37dsXEhJClevq6jZv3rxU45YtW7Zs2ZIQEh0dvXr1auo33RJbqo/Bgwf7+vouWLAgOjqayihNadiwYVBQUFBQ0Lt377y8vEaMGGFlZSWxUIWdh6oLCws7ceLEvn37njx5Mn/+/O7du+fk5IwcOZJK8EIIYbFY4u0l1n758kVGzlyFyMvLEy0PaGxsnJeXRwih0b7PhBUKMYeuNtDV1aU2mExmcXExIaRBgwaZmZnm5uaEkMzMzIYNG6qyf9WAzWb7+/tPmTLl+PHjP//8s7e3N5WFPyQkZO7cuXFxcRkZGR06dKimr20AAEBOCC4DAAAAQGVQoeHmzZv/9ttvo0ePDggIMDExkdjyw4cPlpaW1LaWlpaGRs14C2ppadmqVatFixYJBAJqpUFCSFpaWv369RkMBiGEzWYTQphMpsRC1XW8DqnW3AuampqBgYGBgYHnz5+PiIjo3r1769at7969S301QggpKioSby+x1sXF5erVq1RmAwqbzS4pKVFgP52dnc+fP0/lB79165azszMhpH79+qJsHs+fPxedmsvlKvDUdST3hQyqvQKdOnW6dOlSixYtiouLr1+/vn37dhV2ppp4eHh07969V69eLVu2HDVqFFWYn5/v6uoaGBiYlpa2evXqQYMGUb8tAAAAlagZ7+wBAAAAQG21bdu2S5cuO3funDdvHiEkMTFx+vTpVFWDBg3mzJmzadOmp0+fNm3alMPhJCQkLF26lKot21Il/ZfB398/NDR02rRponmg165d27p1a/PmzTU1NePj4ydPnmxmZnbkyJGyhartOVSdn5+fpaWlvr7+vXv3pkyZQgiZPXv2pEmTAgICbGxsXr9+7enpKZqwL612xowZEydOfPLkiampaXJyclRUVPv27Xfv3i0UCtu3by+KRFfF4MGDL126FBAQYGZm9vTp0x07dhBCnJycdHV158+fb2homJycTLW0tbUtKCiYM2eOlZWVeM+hhgoJCRkxYsTLly9TUlI8PDxatGih6h5VCzs7u/T0dPGsyosWLTp48KC9vX2rVq0ePHhw/PhxNXz5AACoO2j4kRQAAABUH5pPDrWhwiW/6jjROlEVXeJMtvT09Nzc3KZNm1I3c3JyUlJSXFxc0tPT3759K2qmqalJZQnIzs5+//49m822sbGh5vZKa0kIef36tba2tjosi8flch89euTo6Kivry8qLCwsfPv2LY/Ha9SokaGhoYxCRammQQQRiVeYx+MlJSUVFRXZ2NhQGbcp79+/z8zMtLCwMDU1JYR8+vSppKTE2tpaYi0hRCAQpKSk5OXlOTg4aGtrE0KysrLevn1rZGRka2urqLvw7t27goICe3t7UbIOPp//4sULAwMDIyOjpKQkKvJYWFj46tUroVAoPpla2hUApZF2/V+8eNGgQQMjI6Pnz5+bm5tTzy1JSUn6+vpUgggul5uYmGhoaCh6BNZQ0q5AcnLyiBEjwsPDp06dumPHDmpifufOnRcvXkxlw5gwYUL79u2DgoKU32fFEr8Cz54927lzZ3h4uKj2xYsX4eHhW7dujYuL27t3LyFEU1PTysqqe/fu7u7uVBsZVbWD+r+lFA1i4qjiCRMmrF+/nvo7JYTweLygoKBVq1YJBIIZM2YQQphMZv369d3c3Pr27Uv9ois1NVVaFYCaw8MUAAAAACrM1NRUFDsjhBgZGRkZGZUtF6lXr169evVkHEGcvb29QjtbeUwm09XVtVShtrZ22VTREguhRtPQ0BB9fSLOyspKPKE2lfFWWi0hhE6n29jYiJcYGxsrPBGzKO2yCIPBED0mRXNatbW1Rd/igPoTPQIdHR1FhXZ2dqJtJpNZiwe0uLh4ypQpixYtatu27Zo1a0JDQ0+cOKGvrz9r1qy5c+e6u7unpaUVFhYGBASouqcK1qxZs/v37z958kQ0uEeOHKGeaj5//sxgMNatW5efn//s2TMqHfzcuXNlV4GSsdlsXV3d2NhYKmERISQuLi4zM9PMzCwpKenp06dxcXEcDiclJWXXrl2HDx+OiIhgsVhFRUXSqlR7dwDKheAyAAAAAAAAAKiXwsLClStXUgFWd3f3zZs3FxcX6+vr9+nTp2vXrm/evNHR0bG1tRVfvrJ2YDAYAwcOjIqKou57SUnJyZMnDx8+TNWy2WwzMzMzMzMHB4dWrVr16tVr6NChjRs3ll0FShYQELB8+XJRcPnYsWN+fn7UNo1Go3JnWVtbd+zYsWfPnrGxsdR3JDKqANQZgssAAAAAdYLo15oAAADqr9RPXpycnETbenp6LVu2VEWnpFJsbhl/f/8BAwbMnz9fU1PzwoULjRs3lvhDChsbGxsbm4cPH5aNIMuoAokUO4KdOnUqLCx89OhRmzZt0tPT79+/v2HDhrLNmEymh4dHfHx82QiyjCoAdUNXdQcAAAAAAAAAAGoDu120qn+b27hx42bNmp0/f54QEhUV5e/vL62lvr5+cXFxRatABoWMIJ1OHzx4cFRUFCEkOjra29tbPHe/OD09PQ6HU9EqALWC4DIAAAAAAAAAgMJUPUDp7+8fFRX18ePHx48f+/r6SmzD5/Pfvn3bsGHDClWBPKo+goMHDz537lxhYWF0dLSMrweSk5OlrWAsowpArSAtBgAAAEBtppBfd1aFYn9nqhK14C4AAIDyUS8flXvt6NWr19KlSzds2NCzZ09dXd2yDQQCwZYtW1gsVseOHeWvggqpyghaWlq2atVq0aJFAoFA2kDcvHnz8uXLsbGxFaoCUDcILgMAAAAAAAAAKEDSBGGpGa+VC1Bqamr6+vpGRkYeOXJEvPz58+czZ87Mz89/+fKliYnJvn372Gx2uVUgP0WNICHE398/NDR02rRp4stOcjicmTNncjicd+/e5ebmbt68uVmzZuVWAagzBJcBAAAAAAAAABSDikJWPUD5888/+/r6tm/fXlTi5eVlZ2dHCGGz2VZWVsbGxvJUQUUpagS7d+8eGRnp6OgoKrGwsDh48CAhhMlk1q9f38rKSp4qADWH4DIAAAAAAAAAgCJVPUBpbGxcKkZsampqamoqsbGMKqicqo8gk8l0dXUVL9HS0ipVIk8VgJrDgn4AAAAAAAAAAIqXNEFYNhBZ9cXiQGkwggDlQnAZAAAAAABAgry8vE2bNm3ZsoXP54sKhULhtm3bNm3alJWVRQhJSUnZtGlTYWGh+I579uy5d+8eIeTRo0dbt24tKSkRVX348GHTpk2pqakyzpuamhoTE7Nz586TJ0/m5+eLytPT0zdt2sThcOTpfHp6elxc3LZt2w4cOCDf3QWA6oIAZU2HEQSQAcFlAAAAAAAACfLy8sLDw8PDw69duyYqvHPnzsaNG8PDw0XB5fDw8K9fv4rvuGfPnrt37xJCHBwcDh8+HBYWRpULhcJZs2b9/fffFhYW0k568uRJDw+Pbdu23b59e/Xq1V27dv3nn3+oqs+fP4eHh8sZXO7ateuvv/4aERFBJfEEAJVDgLKmwwgCSITgMgAAAAAAgFQeHh7R0dGim1FRUV26dJFzXz09vTVr1uzdu/fRo0eEkH379j1//nz16tUydnFwcDh37lxcXNz+/fuvXbtmY2OzcuVKQkheXt6RI0cIITt27Ni0adOFCxcIIUKh8K+//tqxY0dERERaWpr4ca5du3b//v1BgwZV8O4CQPWSGKCEGkRaiFklnQFQBwguAwAAAAAASDV48OBr165lZ2cTQvLz8y9evOjn5yf/7u7u7kOHDp0xY8azZ89+++23hQsXyl50q3nz5g4ODtQ2m8328PD49OmTtMaTJk2aMmXKs2fPjh8/7uXlRU2XpmBpLwB1Ji3EjBhlTYEvCQBEEFwGAAAAAACQqmHDhu3atTtx4gQh5NSpU87Ozo0bN67QEWbPnk0I8fPz8/DwGDBggPw78vn8y5cvd+jQgRCir68/ZMgQQkhwcPDUqVN79Ohx8eLFK1euHDt2bPPmzcePH+/Ro8eCBQvE00MDgJqr6WkWBALB69ev7927JxAIRIVfvnxJSEhITEwsLi5WYd+Uo6aPICHk06dP9+7dy83NLVVeXFx87969nJwclfQKahYElwEAAAAAAGTx8/OjMmNERUVVaNoyRVtb287OjsPh9OnTp0I7Ll26NDMzc8aMGRJrr1+/3rFjx6ZNmxJCaDTa2LFjk5OTP3z4UNHuAYBq1dAAJZ/Pb9OmzeTJkwMDA7lcLlWYkpLi7++/devW9evXd+vWLT4+XrWdVI4aOoKEkLFjxw4ZMmT8+PFPnz4tVbVq1aqxY8fWkRGEKkJwGQAAAAAAQJYePXp8+vQpOjo6KSnpxx9/FK+i0+mEkFLzhXk8HoPBEN2MjY29fft27969V65cWVBQIOdJly1bFhcXFxkZaWxsLLHB58+fxXNfUNvp6elyHh8A1Io6ByiTkpLevXtHbX/+/DkxMZEQwmAw7t69K56SnhBibW194cKFHTt27N27d+LEibt27VJBd1WEGsFSg6gmI5iRkSFaG5aakkxNNt+2bdv169etra1Ltb9582Zubm6zZs2U3VGomRBcBgAAAAAAkIXNZvfp02fRokW9e/fW1tYWrzI3NyeEiKdFLikpycnJadiwIXUzPT196dKlM2fOXLdunZaW1vLly8s9nVAonD9//oULFw4fPiz+mZ9G+78IRYMGDcRDydS2mZlZZe4hAKgH9QwxczicYcOGpaenFxUVjR49OjU1lSrX1NSU2P7Vq1cPHz68fPmynZ2dErupLtQwxKytrT1t2rS//vqLELJo0aK4uDjqm1GJI5iXl7d27drFixcruZNQc2mougMAAAAAAADqbuTIkXQ6ncp6LK5x48YWFhYHDhxo1aoV9Vl9//79dDq9bdu2VIM5c+Y4OjqOGjWKRqOtW7fO39+/V69eXbp0kXYiPp8/Z86c+/fvHz582MrKSrzKwMCAEJKXl6evr08I6dKly08//fTixQsqM8a+ffvs7OwsLS0Ver8BQAWo0GSpcCR1UyWLyDVv3jwkJCQ0NNTKyqpTp07e3t6y22/evDkjI6OwsHDSpEnK6aEaKjuIKhxBHR2d8PDwoKCgYcOGvX79+ujRozIaL1q06KeffjIyMlJa96CmQ3AZAAAAAACgHPb29hKncTEYjFWrVk2dOrV79+5NmjT59OlTYmLinDlzGjVqRAg5fPhwfHz82bNnqUnHLi4u48aNmzt37oULF/T09CSe6ODBgzExMS1bthTNcWYwGNu2bSOEWFhYWFtbT5kypWXLli4uLgMGDOjWrZu/v3+XLl0+fPjw4sWLPXv2UAFuQsj69etfvXqVlJSUnp4+ceJEQsi6deuoqDQA1AhqFWIeMmTIiRMnHj58eOnSpXIbh4eHE0KioqJCQ0P/+OOPau+cGlOfELOjo+OgQYPCwsIuX76soSE1GHjlypXU1FRLS8vExMSioqL3799nZmaamJgos6tQ4yC4DAAAAAAAIIG+vn5oaGiDBg1KlRsbG4eGhopSIXfq1Ony5cu3bt36+PGjt7d3u3btqMiyUCj8+vXrli1bxCcgT5s2TVdX99WrV23atJF40ubNm4eGhoqXiOLFDAbj+PHjFy5cyMjIoLJzbN++/caNG8+ePfvhhx+8vb3Fc2JYW1szmczmzZuLSmREEwBAbalJiPn+/ftpaWlsNvv69eteXl7y7NKsWbO1a9dWd8dqBHUIMWdnZ8fGxrq6ukZERMydO1daM4FAYGhouGnTJkJIWlran3/+aWZmVmqxAYBSaEKhCibkAwAAQB1B88mhNoSX8Nu6uiXOTmpuQe+kmvH+U9pdqCn9B/mJPvCr5NfK6gBXQLVw/WvBFVDOXZCYt1cJFy07O7t///7h4eHa2tpjxow5duwYlVY+NTU1Nze3T58+Fy5c0NHRMTc3v3///ufPnx0cHHJzc8PCwmxtbVetWqWQPlT3W0qlPQjLDqISRlAoFI4ZM8bDw2PIkCEDBgyYOXMmldskOzs7Pz9/woQJQUFB7du3t7KyEn2dSQgZNGhQcHCwj49PdXcPajp8dw0AAAAAAKBsFy5c+Pfff0sVOjk5lZvMFADqLFXNYj58+PDkyZNdXFwIIbNnz46IiJg1axYhZN26denp6a6urgsXLrS0tFy7dq2RkdHp06ePHz+uo6Pj6+sbEBBQfb2qoVQyi/natWvW1tZjx44lhGzZsiUsLMzd3V1LS+v48eNXr141NjaOiYmJiYnZuXOneMomJycnZF4GeWDmMgAAAFQjzFyus0TTfn1ss6mNS8n1qI2aMvNX2l2oKf0H+alk1qRaBZdrwbzRGg3XvxZcAeXfBVXNYlaVWjNzWeJJxdXiQYTaCjOXAQAAAAAAlK1Hjx49evRQdS8AoKZSk1zMUBUYRKgd6OU3AQAAAAAAAAAANZM0QVg2Cmm3iyZxSiyoJwwi1HSYuQwAAAAAAAAAUFNV0wRYlSw9V2dVxyBiBEE5EFwGAAAAAAAAAKjZFBidlDZnFhkbqpuiBhEjCMqE4DIAAAAAAKiAaHWmUrD+JwBApVU9OlluNga7XTSlRSfLvlJQJbX7laKKg6hWI1guvBmoBRBcBgAAAADF807670PLf58ZvpfUELXgLqgzaR8mqSp8pASJ4uzKz0CKv1MAUoXoZKldxBuLVyknOlnHXykqN4hqNYLlUu0Q4zVFUbCgHwAAAAAAKJWMD5NyNgAAgHJVdKU48fKy+5Yqqe7l5vBKQanQIKrVCJarVg4xj09oPjnDV3+lbmZ+EdJ8coI3Faq2V9UNM5cBAAAAAEB55PysKM+UJWlzjjDPSAn+TuK3Ds6TWHV6ma5vB6boZnGJcMefJVF/lSSm8AuLhWb16F1aakwbpNnanlF2Xy6PHLpccuRqyePXvJwCoa4WrYUNY4A7M+hHtq6WXHGQODua0h4AMma94UGoHFUfgrrwNFKJCbAy5rQmTRBWJSgp5wWX/5XiUnI9eQ5Y01V0EJU/gqSC11yBbwaqlTJfU2ouzFwGAAAAAACAymjjwFg1TqvUP8dG36PG7z4L2oXkT9teWFwinNyHvXS0lldrjdhb3HaT88Kii0sd7VO2wP3n/LHrv75O5ft3YS0dpTWpD5ulQWbuKurySz6pcrgQQPmSkpJatGih8MOmpaUdOXKkYj0pbwJsJQKOKp/6qhyurq4JCQkKP+zWrVu5XG6FdpE9iBjBisJriqJg5jIAAAAAAABURgsbxpwhmtJqS3ik38KCZ2/5v03Umj74e7OlowQ95hb8srOosRljYKdvc5x5fNJv4dcHL3iLR2rNH6bJEJsH9eqjYO3Rb5Fo7yShPJ/zRXPNyjbGHDSo6fh8/qdPnw4fPjxkyBA52zMY377ykTEBVqTcVLxVnPoK1Ihs2bJlzJgxTCZTzvaim+UOIkawLGmvBRV9TanRCoqEcv4GqKIQXAYAAAAAkEtNzP1Xo5V/wW2zxW+JfhytkM/MZ86cycrKGjlypMTa9PT0iIiIxMRECwuLpUuXVv10tdKhOM7fSfwhnizxyDIhxLI+/dh8nZYT8mbuKuznZkDFkQ9dLnnwgufnwVo0onS02qEh/ffp2qKb8scCRNs+4g8VBf4h//8jkCj6QSindevWeXp6tmvXTs72//77r5mZmaGhYbX2SqLU1FQej9eoUSNpDSp63Xb+t+FTZizkHejqfBoRFx8fv3DhQjc3t7S0tNTU1GXLljk5OY0YMSIwMLBXr16EkMePH8+ZM+fChQuEkJiYmIMHD/J4PD09vSVLljg4OMTHxy9atKh9+/afPn0aOnTo1q1bk5OTAwMDTU1NN2zYUG77rl27indGYnSycuQ8SHLUf9e57EhRKvuHWXboqUGsjr/BJk2aTJs27fXr169fvx41atTAgQO3bt2akZGxePFiQgiHw3Fzczt79qypqenff/+9du3agoICQsiUKVN8fHyo3adOnfrvv/86Ojp+/fqVy+WOGTOGijK/e/dOdvvJkyeX6oyiBlH+I3wbRGkjSBT67CpGMe++xLpNPUIqOh+5VHz5zD3uplhO/AteIUdoXo/etZXGynFa5vXKzw+RmML/cV4BX0DOrtBtYSMhPZS4k7e5v0UXJ6bwC4qE9fToLvaMxSM0f2j2LZa7/TTnxC3usxT+51yBkS7NoyVzyUjN5tbfjpn5RVh/cO5EX7ZnK43fojnP3vLtG9Kf7NSv0L2WE4LLAAAAAAAApVlYWBgYGEirLSgo0NLScnR0vH37tjJ7pVhVj0rkFwpfpwpKFdpbfPt0HfUXlxAS0pdddkenxgxPF43Lj3mPXvHaN9UghBy7XkIICR0goXFZcsaX64gXL164uLjI337NmjUjRozo1q1b9XVJmlOnTuXk5MydO1f5p1YHb9682blzp5WVVVxc3Pr16/ft2+fn5xcVFUUFl6OjowcPHkwIuXfv3okTJ44ePcpisR4+fDh9+vTTp08TQl69erVp0yZ7e3tCiIGBweLFiyMjI+VsL5ECQ8x1R8OGDSdNmpSTk+Pl5dWvX79Bgwb5+vr++uuvLBbr4sWLrVu3NjU1zc3NnTNnzv79+01NTbOzswcOHNimTRtjY2NCiImJyebNm6lD7d27d9++fdra2nK2lwiDqBLLDhUv3F/U2JQe0o/dqAH9fYbgzD1u8idBucHla094AxYXNGpAP7tCt6FJOY3PP+AOWFzg2kxj4XAtAx1aWo7gr6e8f97yRcHltUeL3Z01QluzjfRo/74X/H6WczGe+/dOfRuz70c+d5976jZ36WhNJ2tGbkF1Tb5GcBkAAAAAAKC01NTUrKysTp06xcbG5ufn5+bmPn/+3NnZOTg4mMFg2NnZTZo06dKlSzU0uKyoSETMTW7MzS+lCrnnjTQYhBCS8IZPCKFix2W1a6Jx+THvaTKfavA0WVbjUupIZPnevXuRkZFfvnyxsLCYNm1a/fr1+Xx+RETE7du3NTU1AwICOnbsKN5eYi1VeOfOHYFA4OvrS6fTnzx5kpaWtnv37smTJ3fq1EkhXY2NjY2Li2MymYMHD6aOGRERYWho2Lt3b0LIuXPnMjIyOnXqdOTIES6Xm5CQ4OnpGRQUpJBT1yD29vZWVlaEkKZNm759+5YQ0qNHjyVLlqSnpxsYGJw/f56athwXF/f+/fvRo0dTe+Xn5/P5fGp3iZHiirYXQUSyEqhvZYyMjLS1tTMyMszMzFq0aHHx4kVfX9/o6OjAwEBCSHx8fEZGxrRp06hdWCzWu3fvqGBxjx49yh6zou3FYRCV7/Fr/sL9RW0cGNfW6+lpf7v+S0dpCcqL3EZcLhm7/muXVszohTr62uUPXMxNLpNBrq7X1WR9azw74P8aJPyuL57mYqgny/WnvI0xxZsmf/+tz8dMQcLv+uJrIVQHBJcBAAAAAGRR7TLltY/8v28t98pLizCWm26yFIkfzlNTU9PS0qiNiIiIgwcPhoSETJ48OSYmxs/Pr0LHVx/SwhAVvWIiXVtplJ2YLEqX/OWrkM0kbCkJRQ11aYSQ3K9CeRqLkzOyLJ5zWZTrgCg057K5JKQ1AAAgAElEQVSMnlTokkocl5KSkpCQkH379llZWSUnJ1MZVxcvXmxsbLxkyZKsrKyZM2euWbPG2dlZtIvE2gULFuTn58+ePZvBYHz48KFjx47R0dGKnbkcERFx/PjxdevW5eXl/fTTTxs3bmzfvv27d+8KCwupBmlpaR8+fBg5cuSQIUNkz1yu6EMxbs23Syc+xJQqLtWlkKeRUlgsFrVBo9Go+C+bze7du/fx48cbNmzYrl07ExMTQohQKOzVq9esWbNK7a6lpSXxsBVtX25v7XbRZN/9CqX3/WbCt/+lXfBS4yX/K0XZoa9Yx/4jZ5RWlCKZTqfzeDxCyODBg48dO9a2bdt///3Xy8uLqm3cuDE1r7wUaYNS0fayO1wtI0i+DaKM570KPbsq8M2APGTk36/QawohJOJyCSFkxRgtvf8PENNlHmbl4eL5+4pGd2ftmqajIV+k11CXVsIjx65zA7uxJO4iiizzBYTLEzo3ptuY0+8954u36eSsUd2RZYLgMgAAAAAAgGw+Pj52dnaEEE9Pz6dPn9a44LKMGESlw8oUa1P6YA+WtFp9bVpqlpDDlRwypn6fa6jzrW8GOrSPmVIbi1Q0ClBzl2BiMBgsFuv+/ftaWlpt2rQhhHC53KNHj/bt23f9+vVUm+vXr4uCyxJrmzRpEh0d/fDhQz09PUIINW1W4WJiYqZOnUr9jYwcOTI2NrZ9+/bVcaJayc/P7+effzY3NxdNPfbx8QkNDQ0ICLC2tubz+f/880+rVq1K7aWnp5efny9/exGJzwai54GKToOt4hNI7dC9e/fFixdv2bKlb9++GhoahJB27dq9e/cuLi7O29ubEJKQkODo6EhVidPT08vLy9PW1pazvYiMQcQISiPttaCirymEkJcf+ISQNg4VCKgevlKSVygc14u9W2z9gHJNH8S+EM8dtfbrT1sK3Z00urbSGOrJatTge8qLO4m8lYeL7yTysvK+d69UjFs8RUb1QXAZAAAAAACUR3jJSJ75Smo1YVxHR4faYDKZxcXFqu2M/KovpiynFjaM1CxB/Eueu5OED57xL3mEkJa2DFHjj5mChy95bpIaUyoRBai5GAxGdHR0bGzssmXL0tLStm/frq+vT6PRQkND6fRvwQIqZEz58uVL2dq8vDwmkynerDrk5eWJlgesV69eQkICIYRG+z5YAkHpxNwg0qJFC01NzVevXnl6elIlrq6u8+bNCwkJ4XK5fD7fx8enbLDY1ta2SZMmPXv2bNSo0a5du8ptT8oLK5dtLKOqAnevsuR/pYizU0J3ZGEymX369Nm/f/+5c+eoEkNDw717965atWrdunV8Pt/KymrXrl1ldxw7duyIESM0NTX/+OMPedqTigyiykewXOrwZqByrymVeIFxc9J48Z5//EbJ+F6sDo7yRmLN6tEfbde//pR36SH31jPe/H1FC/8oOjpft787kxAS/5Lf5Zd8h4aMFWO07BsytNmERiMjVn8tlZ2DzVLGcCO4DAAAAAAASlXuR0o5P0zWjhhidVB4+ovKGezBvBDP3XaKUza4/Pwd/+rfPFtzumjyl58H8/wD7paTHBnBZXko81FRrecSCAQWFhYhISEhISFLliw5f/785MmTzc3NExISqETGQqGQw+GI2puYmJStNTAwMDExuXPnjnh2ZhaLxeVyFdhVJyenW7duUQHNW7duOTk5Uf3JyMigGjx//pxaHpPNZpeUlCjw1FUfgup+wNjZ2VHR9nbt2h0/fpwqtLS0/Ouvv0Rtzpw5U2qvvn379u3bV7xEfHdCCJ1O37Fjh5zt5Y9IJk0QihpTG+LNSh2ncs8n8l9wOV8plPAnf+/ePWrj5cuXokLxEVy4cOHChQvFd2nRokXZNBfiuxNCgoODg4ODqW1jY2PZ7eUcRLUawXIp6s1AtSp7f5tZMf68y338mtejnRyJnAghhFib0ndP1/aaVeAzu+D0Mt2ureR9mWPQSTcXjW4uGoSQ5E+CdpPz5u0rooLLB+M4XB45tVTX7r9FdAVCkp4rbGCogi8PEFwGAAAAAABlk/GRUh0+TJbry5cvS5YsSUtLS0lJmT59eufOnQcMGKDqTql+qnIpI33Y4bGcyCslHRw1pvT/npr5U7bAf9lXgZCsDdISJWge4c3eeopz+GpJKzvGLH9NsWmv5E2aYO3R4u1TK/Br4logNTV13LhxrVq1otFoDx48oGYybtiwYfr06X/++aeOjk5CQsLSpUtdXV1Fu0isXb9+/cyZM1u2bMlgMHR0dJYvX+7u7r558+Z79+4NHDhQPGVzpf3yyy/jx49/9uxZfn4+h8NZuXIlIaRPnz7Dhw/X1NTMzs5OTU2lgsvt27ffvXu3UChs3749FQSHalWh2cqiWvG9VPtNVU1/pVCIig6iWo1guWriEA/zYv0WXTx/X1EnZw0dTbGfaAhlpV1uaEL/K0zPe1b+j/MKYhbp9GxffmA6O19YT+/7EW3M6KZG9Oz8bwNHVfD438dx4/Hi/ELVBJdpQqFaPJ4AAACglqF+aOZjm03dFC23gpmGdY3oM4PafkgAlVP5g0T02Vv8w/anT59KSkqsra0/fvwoEAioZLUZGRl5eXl2dnYlJSWPHz8WNTY1NW3cuLFye/2dSmLKfyfxWwfntbZnDOxUOudyNxcN0ezjt+mCXnML/n3P/6GZxo8/MPW0yIsPgiNXSwqKhOsmaE0frCm+48dMQd+FBY9e8ZtaMX78gWlej1ZQJLz/gh/3iNvSlvFwm3413ReVk/gIJIR8/fo1KSmJwWA4ODiI1oLj8Xhv3rwpLi5u3Lgxle/ixYsXDRo0MDIyklhLCCkpKXn9+jWNRmvSpAm1MOC7d+/S0tJsbW2pFeSqjsfjJSUlMZlMGxsbUUKMwsLCpKQkKyur4uJiDodjbW1NCMnKynr79q2RkZGtrW25V6AGUbe7UImwcrm7V+I4NYi6jSCp2iDWxBFU+ZsB+S07VLxwf5GNGX24N6tRA3pqlvDPu9wNk7TcnTR4fMLsmTPMi3Vojg4hJPOLsP7g3Im+7B1TtQkh2fnCHnPynybzRdktZPCckc/lEa/WGtam9BIeOXmbe/4B99ehmivGahFC/krgdf0l386cPrkvW5tNu/aUd/VvHptJmBrk9X6DsqeuVpi5DAAAAAAAUJq5uTm10bBhQ1Fh/fr169evTwhhsVjiM0ZVReVT0h6/5j9+XVSqUGOclii43NiU/nC73o7TnKi/uBuOFxdxhKZG9H5uzJ8HarZxKL1+fUMT+p1w/YOXOEeucQ/GcXILhLpatBY2jHUTtMf3krpsYC2mo6PTsmXLUoUaGhoODg7iJU2bNpVRSwhhsVjNmzcXL2nUqFGjRo0U2FUNDQ3xblC0tbVbtGhRqtDY2NjY2FiBp4ZSqhhWFm9f9lDqGZSsfao+iBjBarVguGZLW8am2OJNMRwOV2hhTO/aSsPOvPyl8+rp0S6v0+s9r8BvWcH+WTqB3WS9tI3tyT5ytWTP+ZKMXIGeNq2pFeOPmTojfb7t4tFCI2qBzsrDxfP3FWuyiEdLjRsb9IauKMj9qoIhxsxlAAAAqBaYuQyUGjQPBVRF5Q8SNZywJpu6pb+AKqpxj0CFqwVXQB3ugkLCynWWOowgqduDqPI3A1Bp5YfVAQAAQJ3Z7aJR/1TdEQCAOmTnzp0hISHiJatXr543bx4h5Pnz54GBgV27dvXw8Bg4cOCbN2+kFVaUjCf8pAlC6l+l7g0ASBYaGvr7779TG46Ojh8/fqTKly1bFhYWptKu/R+Jzwxq8pzw+fPnadOmdezY0c3Nzd/f/8GDB1T5X3/91bNnT1GzpKSkFi1a3Lt3z83Nzc3NrU2bNo6OjtT26tWrK332yMjI8ePHUxt2dnZ//vknVX7p0iV/f/8q3C3FU9tB5PF469ev79y5s7u7e/fu3Y8cOUKVczgcOzu7nJzvGZNdXV0fPnxIjVqHDh3s7Oyo7YCAABX1HZQEaTEAAABqCTWZcAEAUBcMGjRo8+bNOTk5VKJbPp9/4sSJnTt3EkJCQ0ODg4MHDRpECHn9+rW+vr60QvmpPP0FADRo0CAsLOy3335TdUf+j5pPdC0qKgoMDPT29r5x44aGhsbVq1eDgoIOHDhQNt8LxdXV9fbt24SQo0ePnj9/ft++fQrsjKWl5W+//dazZ08NDfUKhan5IM6aNSszM/P06dOGhobJyclBQUHFxcWjR4+W2JjFYlEjmJKS0rNnT2obpOFwibR8Egw6jalej1NZak5PAQAAQD7UO1T1eUsKAFD7mJiYuLu7x8bGjh07lhBy9epVIyOjVq1aEULS0tJsbGyoZvb29tSGxMJyIf0FgPoYNmzY/v37nz9/7ujoqOq+EKL2EUnK6dOnGQzG7NmzqWUePT09AwICtm/fvn37duV3xtnZmcfjRUZGjhw5Uvlnl0j9BzElJeXPP/+8ceOGoaEhIcTW1nbevHkzZ85Un2tYo5n65X6RkiJZtCRgjYDgMgAAQO2kJiFmUaplAIBaJiAgYP369VRwOSoqSvQL66lTp44ePbp169Zt2rT58ccfqdXVJBZKg5gygBrS1NScMmXK2rVrFTudthLUPyIp8s8//7Ru3ZqKLFPatm179uxZVfVn5syZI0aMoH5Eolo1Zam9f/75x8LCwtTUVFTStm3b3Nzcjx8/NmjQQIUdqx3i1urx+JLHvb5BTcpjjOAyAABALSFxVWjkygAAqCZdunSZP3/+06dPzc3Nb926JcoKOn78+MGDB9+9e/fOnTsDBw7csGGDt7e3xMKyx0T6CwB15ufnt3fv3rt376qqAzUorCwiHlkmRGoSAOWwt7fv2rXr77//7uTkpKo+1JSwskipEZRdLq0xSNSuCUPVXVAMBJcBAABqFYkhZqKKiczeSf/XEzV/3wwAUFEMBmPQoEFRUVFWVlaenp5U8mWKoaFhz549e/bsqa+vf/LkSSqOLLGQgpgyQI3AYDB++eWXNWvWtG7dWsmnrolhZUKIk5PT3r17hUKhKOb46NEjKrBrbGwsvhZcdna2iYmJErr0888/+/r6Tp8+XQnnKqXGhZUJIc7Ozh8/fkxLSzMzM6NKHj58aGho2LBhQzqdrqurm52dTb38CQSC3Nxc5QwiqJuaNMsaAAAA5EQtLV32DSu1DrWMH1xXn1GjRmVkZIhu8ni8MWPGpKWlpaamBgYGBgYGjho1asaMGTExMTwej2ojowoAQB34+fmdOXPmyJEjfn5+osLY2Nji4mJCSFFRUUJCgpWVlbRCGc/JEp/DAUDlevTowWAwLl++rLQzSnyWqClPEX369OFyuWvXrqXewl29evXIkSPBwcGEEHt7ew0NjTNnzhBC+Hx+ZGSkh4eHErpkamrq5+e3Y8cOJZxLpOwg1pQRtLa2/vHHH2fNmpWbm0sISU5OXrFiRUhICJ1OJ4R07tz54MGDAoGAEBIZGWlrayueQAPqDsxcBgAAqM3UZyKzrq5ubGzshAkTqJtxcXGZmZlmZmZJSUlPnz6Ni4vjcDgpKSm7du06fPhwREQEi8UqKiqSVqW0bgMAyNCoUSNHR8eUlJROnTqJCm/fvr1p0yZq283N7aeffipbuNNw9s5ds8sesEbEGgDquNmzZw8ZMkQJJ6qhs5XFaWtrHz58eOXKlZ06daLRaJaWlrt27XJxcSGEsNnsXbt2LV++fP369TQarUOHDjNnzlROr4KDg48ePaqcMGhNnK1cyrp16zZs2ODr6ysUCrW1tceOHTts2DCqasmSJcuWLfPy8iKEWFtbb926FWkx6iaaavPdAAAAQBVVKO+E8n95LTrjvmbXly9ffvHiRerm2LFju3btOnLkyKSkpP79+yckJFDlXC63Z8+eEyZMCAgIkFFVTb2F6kDz+fajV+ElI9ktoc5S+YNEaQl8kP4CJJLxCMzLy9u3bx+DwZg0aRKD8S07p1Ao3L59O5fLHT58uLGxcUpKyokTJ4KCgrS1tUU77tmzx9nZ2dXV9dGjR3fu3AkKChJ9Nfvhf+3deXhU5dk/8GeyEKAQ2VcpiOyoUPUCFAWUTXFBWaJYpWJprUW07r72RdzF1x1t3eWnVlAQEKsiAooFqXpZtVIEF1QUBYQCgogBwvz+GBspJIEDCTOZfD5X/jhzz5k5z3DCnDnf3POcZcsmT548ePDgRo0aFTekr7/++o033li1alWDBg2OPfbY6tWrJ+orV65MdJ7m5OTs8nWtXLlywYIFH330UbVq1YYOHbpn/wLlRem+hDSIlcudUv8lTINYeR9L+ocB9phpMQCgAinuK3j7YK6Mo4466vvvv3/nnXdCCCtXrnzrrbf69++/82rZ2dndunV7++23I90FkMpMf8EeW79+/dixY8eOHTtnzpzC4t///ve77rpr7Nix//73v0MIS5cuHTt27MaNG7d/4COPPJK47lzLli0nTJhwxx13JOrxePzyyy9/7733SkiWp02b1q1btz//+c/z588fM2ZMjx49/vWvfyXu+uabb8aOHZufn787g+/Ro8dVV1315JNPPvHEE9FedgVWrifBIKH8ToIBe8a0GABQ4RR+ut3hg2+Z9g1lZGQMGjRo0qRJhx566DPPPNOrV6/99tuvyDWrV6+eOFuOdBdAqinhj3ZSBiLp1q3bM888k/jueQhh0qRJ3bt3f+WVV3bnsdWrV7/llluGDRvWp0+fQw89dNy4cYsWLXrppZdKeEjLli2nT5/esmXLEEJ+fv4vf/nLm266afz48evXr3/qqadCCPfff39OTk6bNm369u0bj8fnzp37wQcfVK9evWfPnoVX/QohzJkzp379+nfcccf06dP3/MVXDL7WkAb0m1Nh6VwGgIprHzcyDxo0aPr06d9///0zzzyTl5dX3Gqffvppce1UJdwFkDpK7lOWNRDVoEGD5syZs2bNmhDChg0bXn755e2vIblLXbt2HTJkyKWXXrpw4cLbb7/96quvLnm22Xbt2iWS5RBCTk5Ot27dli9fXtzK55133siRIxcuXDh58uSePXsm2qUTXNprN/laQ3mn35wKTucyAFR0+6yRef/99+/QocPo0aO3bdt2xBFHFLnOvHnzZs+ePXXq1Eh3AaSCsp5fiAqrcePGhx9++LPPPnvOOec899xzBx10ULNmzSI9wxVXXDF37tzBgwd379791FNP3f0HFhQUzJ49u0uXLiGE3Nzc008/PTHncm5ubgjh5ZdffuWVV/7617+2bt06Ho9fcsklo0aNeumllwqnh6Zkel3LO3sQgnAZACiU+Ci886fkRKVUPijn5eVdcMEFF1100fbXks7Pz7/sssvy8/O/+OKLdevW3XPPPW3atNnlXQApYpfTXwid2XuDBw++//77zznnnEmTJp155plRH161atUDDzxw6dKlJ510UqQHXnfddatXr7700kuLvPe111474ogjWrduHUKIxWLnnHNO//79ly1b1rRp06gjrGjMg1HeeWOHQsJlAOC/lGkjc58+fcaPH9+2bdvCSqNGjRLX+cnOzq5bt26TJk125y6AVCAeYp/p27fv6NGjn3nmmSVLlvTr12/ZsmWFd2VkZIQQCgoKtl9/69at27cPT506df78+SeccMJNN93UrVu3atWq7c5Gr7/++lmzZo0fP7527dpFrvDNN99sP/dFYnnlypXC5RIIJcu74rqV7VkqLOEyAFC0smhkzs7O7ty58/aVKlWq7FDZnbsAksiV+tj3cnJyTjrppNGjR5900klVq1bd/q6GDRuGEJYvX154Mb3NmzevXbu2cePGiZsrV6687rrrLrvssiFDhpx44ok33HDDmDFjSt5cPB4fNWrUnDlzJkyY8POf/7ywvv0Xj0II9erV2z7mXrlyZQhh+2v6sb0SplCQS5YLJsGAIgmXAYCS7LMZmQFSnEyZ5Bo6dGhGRsbpp5++Q71Zs2aNGjV6/PHHO3TokOhifuyxxzIyMg477LDECldeeWXbtm1/9atfxWKxW2+9NS8v7/jjj+/evXtxGyooKLjyyivfeuutCRMm7PC1of322y+EsH79+sScy927dz///PM//PDDxMwY48aNO/DAA/fff/9Sfd3pQChZ3tmDUALhMgCwW/bBjMwAqcn0F6SCFi1aXHPNNTvXMzMzb7755gsvvLBPnz6tWrVavnz5Bx98cOWVVyY6jidMmPD222+/+OKLiabjjh07/vrXv/6f//mfGTNmVK9evcgNPfHEE1OmTDnkkENuuOGGwk38+c9/DiE0atSoadOmI0eOPOSQQzp27Hjqqacee+yxeXl53bt3X7Zs2YcffvjII48kAu4Qwm233fbxxx8vWbJk5cqV5557bgjh1ltvTaTSFYdQsryzB2GXhMsAQAQamYGKQ6sySZebm3vBBRfUq1dvh3rt2rUvuOCCwqmQjzrqqNmzZ7/++utfffVVr169Dj/88ESyHI/HN27ceO+9927fgHzRRRdVq1bt448/PvTQQ4vcaLt27S644ILtK4V5cWZm5uTJk2fMmLFq1arE7Bz33Xff3LlzFy5c2KlTp169em0/J0bTpk2zs7PbtWtXWMnKqkARhFCyvLMHYTdVoHd2AKAUaWQG0pVMmdSRm5t74YUX7lyvXbv2DvUaNWqccMIJO6wWi8WGDx++Q7FSpUojRowoYaOdOnXq1KlTcffWrFlz+6k5YrFYt27dunXrtvOagwcPLmEraUwoWd7ZgxCJcBkA2HO7bGQGKEdMf0GFMmPGjMWLF+9QbN++fa9evZIynvSw89uIN5DyxR6EqITLAEApcK1zIP0IFIC94T2kvLMHYXcIlwGAUlNcI3MwXQZQrnizoiLo27dv3759kz2K9OQ9pLyzB2H3CZcBgNKXyjMyv/baa4sWLapRo0bv3r0LL4UEEJL97gSkAW8j5Z09CFEJlwGAsrLLGZn3/cf3kSNHfv311/369Vu6dOmCBQt69OixjwcApCBRArCXSvFt5L333jv33HPnz5+fmZmZqMyZM+eGG26YNWvWt99+O3r06Pfeey+EkJOTc/HFF/ft27fIYmkNpuIoxT2Yn59/xBFHPPXUU61atUpUvv32265du86aNat+/fp33333tGnT4vF4COHkk0+++OKL4/H4zsXSGgzsA8JlAKDM7ftG5qeffvqggw5q3759CGHq1KkHHHBAx44dX3311QULFsycOTM7O7vUtwgAsPc6duxYq1atV199tfDKipMmTcrLywsh3HrrrVWqVJk9e3ZmZubq1avXrVtXXJEkysnJ6d+//8SJE//3f/83UZk2bVqnTp0aNGjw/PPPz5w587nnnqtevfqmTZs+/PDDEMILL7ywcxHKkYxkDwAAqCiW/Dae+NmhfuCDscRPKW6rRYsWI0aMWLdu3axZsx588MHWrVuHEObMmXPCCSe8++67U6dO/eyzz0pxcwAApSUvL2/SpEmJ5bVr17722munnnpqCGHFihVNmjRJdDTXqVOnRYsWxRVJrry8vGnTpm3dujVxs/DPA8uXL69bt261atVCCFWqVOnYsWNxRShHhMsAwL5WZMQc/pMyl8omDjvssDPOOOP3v//96NGj77nnnipVqoQQVqxY8eKLL06bNu3rr78+66yznn/++VLZFgBAKTr11FPnz5+/evXqEMLUqVO7du1at27dEMLw4cMfffTRAQMGXH/99fPmzUusXGSR5Grbtm2jRo1mzZoVQvjggw+WL1/es2fPEEL//v2XL19+7LHHXnHFFVOnTt2yZUtxRShHhMsAQHKUdSPz6aefvmDBgqOPPrqwhadmzZotW7a88cYbR4wYMWrUqAceeGAvNwEAUOpq1KhxzDHHTJ06NWzX9BpC6NKly+uvv37JJZfk5uZedtllY8aMKa5I0hW2n0+cOHHAgAGJOdnq1as3ffr0sWPHtmnTZty4cUOGDCkoKCiymOzhQwTmXAYAkqyMZmS+6qqr8vLyZs+e/eabb3bu3DmE0LFjx7lz5ybuzcrK2rZt254PGmBXZh3449ta4R+yZt3yY6XXEpcQTAeFu3hndjF7KS8v7/rrr+/UqdO6deu2v/5wTk5O165du3btethhh1100UVXXnllcUWS6+STT77lllu+/PLL55577umnny6sZ2RkHHzwwQcffPDpp5/eoUOHzz77rEWLFkUWkzh4iETnMgCQEkq3kfnxxx9fu3btH//4x7vuuuuyyy5LfLG0f//+H3300e233z5+/Pgbbrhh2LBhpTZ6AIDS07Vr1x9++GH06NEDBgxIzKccQpg1a1biI008Hn/77bd//vOfF1ck6apXr96nT5+RI0c2b968ZcuWieI//vGPjz/+OLH87rvvZmZm1qtXr8hicgYNe0TnMgCQWva+kbmgoOD777+/6667MjIyOnbsOGrUqA8++KBbt25VqlSZMmXK888/v3Hjxnvvvbd9+/ZlMX4AgL0Ui8UGDRp011133XXXXYXFL7744rbbbtu0aVMsFmvevPmtt95aXJFUkJeXN2TIkBtvvLGw8v333998880rV67MysrKzc297777cnNziywmcdgQVSwe920dACjHCkPYPZ4+IsUV17Ocrq83/cR6r00sxGfWTO5ISFnp+ktSOGdC7+ZrEgszP62VWDBnQkop/A3ce4W7+Nwr9uThOxzahg8fftppp/Xu3bvIlV944YX77rvvo48+Gj58+OWXX74n20sZaf9hpgSJNwrvEuVXcW/19mBU6fphoCLQuQwApLQympEZAFLclVdeWadOneLubd269R133DFhwoR9OaTStfcX7wUg6YTLAEA5UBgi73AiWpF7nQBIb2PGjEl0Lp911llt27ZdvXr18uXLW7Vqde2114YQEtf7ysgolxdSEisDpA3hMgBQnmhkBqCMRP0uduHX4XcW6Xi0O0nrxo0b77jjjng83r9//3ffffcXv/jF7j9/6jDVFUD6EVKNnTgAABrFSURBVC4DAOWPRmYAKpRjjjkmhBCLxVq1arV06dLyFS6XkJ47XgOUd8JlAKAc08gMQEVQqVKlxEIsFisoKEjuYHaTTBmgIhAuAwDlnkZmIAX1WvKfd57ea3eskBbs0OKY/gKg4hAuAwDpQyMzABXEyy+/fM0112zYsCEWiz377LM33XRTjx49kjskrcoAFVAsHvcWDwD7WgmXAIraBqU5twRl2jlV3E7UyLaD2H96NqNeKYuKI+1/SdL+BZZ3Sd9B5f1QLlPee0n/JWTv2Yl7yT9g+aVzGQBIWxqZAaDsmP4CAOEyAKShlStXrlu3rnXr1itXrvz88887dOhQuXLlEMLatWuXL1/erl27ZA9wnzIjMwDp57333mvWrFmNGjUKK5988kmVKlUaN24cQli9evWXX35ZrVq1Aw44ICvrxxP/Iot7QKsyAIWEywBlq/DbPfBfmq8p9q5ifmeaD661+08/e/bsV1555eGHH549e/aoUaMuvvjiESNGhBDefvvthx56aOLEiRGHW4ZKOEFN8TE88J+F3jvsTf/rASh7EyZMqFev3iWXXJK4GY/HzznnnP/7v/9r3Ljxdddd99prr3Xo0GHt2rWLFy/++9//HkIoshiJTBmAnQmXASDNHXLIIY899tgvf/nL7ZubAIBy7bTTTjv//PP/8Ic/ZGZmhhBef/31jIyMzp07f/TRR9OmTZs3b16VKlVCCJs2bQohFFncfaa/AKA4GckeAABQtho1atS/f/9777032QMBAErNoYceWr169Xnz5iVuTpo0afDgwbFYLCsrKz8/f/HixYl6Ik0usrhLBz4YS/zsfNeS38YlywAEncsA+4yL3rK9WQcW+8XSXkuKO1Urur47UzqMGDGiT58+Z5999u6MbR/bl6empdt4NeuWH59t5qf/NWNJ8XsQAErT4MGDJ02a1L1792+//Xb27NlXXXVVCKF58+aXX375yJEjf/jhh8MPP/zMM8886qijiiwW97SmvwBg9wmXASD91ahRY9iwYXfcccfxxx+f7LEkgS/zAkmx83UXEhV/b6a0DBgw4O677163bt1zzz3XuXPn+vXrJ+pDhw4dOnTol19+OXv27N/+9rdPP/30wQcfXGRxhyd0xAQgKuEyACTBvm9uHTZsWM+ePZs2bbqPt5tcZXqSrEMZKEEJV/SN9V4rX6ZU1KpVq1u3bs8+++zkyZPPP//8He5t0qTJ2WefPWvWrPfee68wRy6yKFMGYI8JlwGgQqhcufLIkSNvuummNm3aJHssZc5JMpBcJSTLhSvIlykVeXl5l19++bZt23r27JmoLF68+IUXXjj22GNr1679z3/+81//+tcf//jHIoumvwBg7wmXASAN1atXr3Xr1omFli1bJoqDBw/+29/+Vvid2bQkVgaSbpfJcuFq8mX23tFHH92hQ4fOnTtnZf14dt+oUaPc3NxHH330u+++a9CgwaOPPtq2bdv169dvX9zw+3+eOLfdzs/mcAlAVLF43MEDoAwVnmE6gaSMFMapO58Qrl279vHHHw8hZGdn16tXr3Pnzk2aNCnhqVauXDl79uwzzjijjIZa5LZKZaMyZSjX0uxYuZvhckiX15sGkv4bWMKhvIw2tAOHy6RL+i8he89O3Ev+AcuvjGQPAAAoK2vWrLn//vubNm1au3btTz/9dMCAAWPGjClh/W+++Wb8+PH7ZmyF29rLjR74YKzIU+Ulv407VQaA8J9jpcMlAGXBtBgAkM6ysrJOOeWUxPKwYcP69OnTuXPnY445JoSQn5//8ssvr1ixon379kceeeT2jyooKHjjjTcWLVqUk5NzzDHH7L///iGE8ePHd+/evXHjxiGEb7/9duLEib/5zW+K3Gh+fv7MmTO/+uqrxo0b9+7dOycnp4Rt7Zm97L1asmTJvHnzfvjhh4MOOqhr166J4tKlS+fOnXvmmWcmbq5du3bChAknnHDCs88+u8PD27dv36tXrz0dO1Cs3e/5BXbJlMoA7AM6lwGgoqhbt+5xxx336quvhhA2btw4ZMiQr776qmHDho899thtt922/Zrr1q2bP39+vXr1YrHY0KFDP/vssxDCmjVrHn300cQKEydO/Pzzz4vcynfffXfyySe/8847jRo1+vTTT5cvX17ytqLa+96rhx566Mwzz9ywYUPlypXvvPPOYcOGbdmyJYSwdOnSv/zlL4WrrVmz5r777svJyWnQoEGDBg2WLVs2ffr0xHKNGjX25iUAQJkq7lgZtCoDUNp0LgNABVK/fv1PPvkkhDB+/Pj99tuvbt26+fn5PXr0GDNmzKWXXlq4Wu3atYcPH/7OO+9s3bq1Xbt2L7744ogRI84444zjjjvukksuqVy58pNPPnn//fcXuYnx48cffPDBV199dWHloYceKmFbu6m0polcuHDhnXfeOWPGjMT002eeeebAgQMffPDBESNGFLl+gwYNTjvttMTy6tWrC5cBINWU0KoMAGVEuAwAFcjKlStr1aoVQvj888+rVauWKFaqVOnqq68uKCgoXG3BggXnn3/+oEGD6tevn5WVtXr16hBCrVq1evToMWXKlIYNGzZs2LBNmzZFbmLp0qWtW7fevlLytnapdK8+NGPGjKOPPrrwwoaZmZlDhgz5y1/+Uly4DOwDaXbpHpN7sI/tzvQXcmcAyohwGQAqilWrVr300kt33nlnCKFZs2ZvvvnmwIEDi1zzpZdeOv30088777wQwvvvvx+P/3hqevbZZ1900UUNGzYcOnRocVtp1qzZ4sWLd6iUsK3ilNEV7VevXt2wYcPtKw0aNFi1atXePCcAJEUZHSsBYPcJlwEgnW3dunXy5Mn5+flffPHF5MmTTzvttB49eoQQzjjjjClTplx22WVHHnnkqlWrPvvss5tvvrnwUe3btx83blzXrl0XL148b968xENCCO3atatdu/ZHH33Up0+f4rY4ZMiQgQMHXnvttR06dPjss89OPfXUkre1szI9Va5Tp86HH364fWXFihV169YNIVSqVGnz5s2F9c2bN1eqVGnvtwhUNPGZNXeneTnN+rXZl1ypD4DUIVwGgLRVq1at3/3ud8uWLcvOzm7RosWUKVMKp4P42c9+9txzz82cOfOLL76oUaNGokm5Xr16Z5xxRgihX79+1atXf/PNN1u0aHH33XevXftTStK8efOuXbtmZmYWt9Fq1apNmzbt5Zdf/vrrr1u1atWwYcOcnJwStlW4sG/ar/r06fPwww9/+eWXiX+KgoKCCRMm9O3bN4TQrFmzFStWrF+/Pjc3N4SwePHiAw44oBQ3DVQcu8yXJcvsAZkyACkoVvhFVwDKQuG5pdNIykjhqWZZn1iuWLFi9uzZf/rTn6ZPn77ffvuV4jPv42/1PvDAA+PGjTvrrLOqVav217/+9Wc/+9lDDz2UaFIeNWrU4sWLTznllA0bNjzxxBM333xzt27dEo96+umnX3rppXHjxpXFkIC0VFy+7CNBqkn6p7VdHsr3/kC5zz4tsGeS/kvI3rMT95J/wPJL5zIAsFvWrVv37bffjhs3rjBZ/vLLL996663t1+nQoUOLFi128wmTNVPkueee27Nnz3nz5m3atOkPf/hD165dY7EfR3L99de/8cYbCxcuzM3NfeqppwobvUMIBx10UE5OTpkODEgzhafHTpjZM1qVAUh9wmUAYLe0adOmTZs2pfJUSb8AUYsWLYoLwbt06dKlS5ed6+3bt2/fvn0ZjwsAZMoAlCfCZQBgDzVp0mT73t5dSnqmDACpzIESgHJHuAwAlKES2q+Cs2UAKJ6jJACpT7gMAJQVHVgAsAccKAEoL4TLAEDpEysDQFSOkgCUO8JlAKDUuAYRAETlEAlA+SVcBgBKQclzKwMAAJB+hMsAwJ7b5fQXQmcAAIB0JVwGAPaEWZUBAAAqOOEyABCBTBkAAIAE4TIAsFvEygBQvsw68Mdj9wOFlVtiIYReSxy7ASgdwmUAoCQyZQAAAIokXAYAiiZWBgAAoATCZQDgv+yDTPmBBx54//33//SnPxVWxowZs2HDhhtvvHHRokXXX3/9119/vW3btjp16tx+++0HHHBAkcXSGgwApL3ezdckFmZ+Wiu5IwEgzQiXAYAf7bNW5YEDB95zzz1r166tWbNmCKGgoODZZ5994IEHQggXXHDB7373u4EDB4YQPvnkk9zc3OKKAAAAJJdwGQAqun0//UWdOnW6du06derUc845J4Tw6quv1qxZs0OHDiGEFStWFHYlt2jRIrFQZBEAAIDkEi4DQMWVxFmVTzvttNtuuy0RLk+aNCkvLy9Rv/DCC88+++xf/OIXhx56aL9+/Vq2bFlcEQAAgOTKSPYAAIB97cAHY4mfHepLfhtP/OyDMXTv3n3dunXvv//+qlWrXn/99VNOOSVRHz58+N/+9rchQ4asWbNmwIABs2bNKq4IAABAculcBoAKJImtyjvIzMwcOHDgpEmTmjRpcswxxyQmX06oUaPGcccdd9xxx+Xm5k6bNq1Xr17FFQEAAEgi4TIApL/UyZS3N3jw4FNOOaVGjRrXXHNNYXHq1KnHH3985cqVN23atGDBgnbt2hVXBABK1mvJfw70vdfuWAGA0iBcBoB0lpqxcsLPf/7ztm3bLl269Kijjioszp8//+67704sH3nkkeeff35xRQAAAJJLuAwAaSgVMuVZB8ZCCA8U3rzlxyFt3zP15JNP7vCoW2+9deenKrIIAABAcgmXASCtpEKsDAAAQEUgXAaANFFkrCxTBgAAoIwIlwEgPaVIrNy7+ZrEwsxPayV3JAAAAJQu4TIApJsUiZUBAABIb8JlAEgTMmUAAAD2JeEyAJRvMmUAAACSQrgMAABQ+mK91xZZic+smYzhUIQd9lHhzbTZR34JU5wdBKSBjGQPAABIT72WxHstie9wc/sKQBrbOTPanbvYl9J+H6X9Cyzv7CAgPQiXAQAAStMugyHJUdKl/T5K+xdY3tlBQNoQLgMAAJSa3YyEJEdJlPb7KO1fYHlnBwHpRLgMAAAAAEBkLugHAACQomYdGNuhYvJ6ACB1xOJxH00AylD6XXYcIvGNTgAAKg7nfXvGiXP5ZVoMAAAAAAAiEy4DAAAAABCZOZcBgDLke21ARbP70wHtzjukOZfLQunuoxSU9i+wvLODgHSicxkAAAAAgMiEywAAAKVmNzsNd3O17fuUey2Ja1suFaW7j1JQ2r/A8s4OAtKJcBkAAKA07TISkhklXdrvo7R/geWdHQSkDeEyAABAKSshGIqUGW0/5/LO8y+zN0prH6WstH+B5Z0dBKSHWDzue1UAZajweh0+IwIAkRSXJpscA4A048S5/NK5DAAAkHJK6FPWwgwApIisZA8AAACAn+xOdpxYRwszAJBcOpcBAAAAAIhMuAwAAAAAQGTCZQAAAAAAIhMuAwAAAAAQmXAZAAAAAIDIhMsAAAAAAEQmXAYAAAAAIDLhMgAAQErrtSSe7CEAABRBuAwAAJC6EsmyfBkASEHCZQAAgBS1fabca0lcxAwApBThMgAAQCoqMkqWLwMAqSMr2QMAAADgJ7uMj+XLAECKEC4DAACUD9vi4f/NyP/7BwVZmWFw90rHdnRCBwAkk88iAAAAqejw368/vHXW/RdWTdzcFg/9rvpuxttbEjfvfz7/zxdUPe+knOQNEACo6My5DAAAkHIWfl7wj48Lurb/qR9o4pzNM97ecnirzGevrfbwxVXr7Be74uFN320yRQYAkDQ6lwEAAFLOe0sKQgjbT3wx4dXNWZlhyjXVmtTNCCHUqBYbdN3GV/+59aQu2UkbJQBQselcBgAASDkr1m6rlBUa1f7plO2NRVu7tM1KJMshhBO7VAohfPJVQXLGBwAgXAYAAEhNBdvCtv9MerFs1bZv1sU7t/mpkTknO+RWjW3anJyxAQAE4TIAAEAKalovo2BbePeTHxuT57y/NYTQqU1m4Qqbt4bvNsXr14glZ3wAAMJlAACAFNS9Q3bVnNjIe79f9EXBoi8Kbhr/Q0526H3YT9Mrv/vJ1m3x0KxBZglPAgBQplzQDwAAIOXU3S92yeCc6//yQ7tfr09ULsurXLPaT33KU+ZtyckOR7QTLgMASSNcBgAASEXXDq3StF7GM3O3ZGaEEzpn/+7EnMK74vHw+Ypt556YUzXHtBgAQNLE4vH4rtcCYE/Feq9NLMRn1kzuSAAAACAFOXEuv8y5DAAAAABAZKbFAAAAKB+2xcP/m5H/9w8KsjLD4O6Vju3ohA4ASCafRQAAAFLR4b9ff3jrrPsvrJq4uS0e+l313Yy3tyRu3v98/p8vqHreSTnFPwEAQNkyLQYAAEDKWfh5wT8+Luja/qd+oIlzNs94e8vhrTKfvbbawxdXrbNf7IqHN323yUV0AICk0bkMAACQct5bUhBC2H7iiwmvbs7KDFOuqdakbkYIoUa12KDrNr76z60ndclO2igBgIpN5zIAAEDKWbF2W6Ws0Kj2T6dsbyza2qVtViJZDiGc2KVSCOGTrwqSMz4AAOEyAABAairYFrb9Z9KLZau2fbMu3rnNT43MOdkht2ps0+bkjA0AIAiXAQAAUlDTehkF28K7n/zYmDzn/a0hhE5tMgtX2Lw1fLcpXr9GLDnjAwAQLgMAAKSg7h2yq+bERt77/aIvChZ9UXDT+B9yskPvw36aXvndT7Zui4dmDTJLeBIAgDLlgn4AAAApp+5+sUsG51z/lx/a/Xp9onJZXuWa1X7qU54yb0tOdjiinXAZAEga4TIAAEAqunZolab1Mp6ZuyUzI5zQOft3J+YU3hWPh89XbDv3xJyqOabFAACSJhaPx3e9FgB7KtZ7bWIhPrNmckcCAAAAKciJc/llzmUAAICUs+CzglXf6gQCAFKacBkAACDlTJ67ef/T1512w8ZZ72zxdVMAIDUJlwEAAFLOUQdltdo/c+Jrm3tf8d2BQ7+9acIPy9dsS/agAAD+izmXAcqWqaMAgD32xqKtD0/f/PSczd9timdlhn6dsn/TL+f4TtmZ2oQASCNOnMsv4TJA2XKMBAD20neb4k/N2fzI9M1vLNoaQmhcJ+Oc4yr9+ricpvVlzACkAyfO5ZdwGaBsOUYCAKVl4ecFD0/Pf2LW5n+vj2fEQu/Dsq/7VeVObbKSPS4A2CtOnMsvf+gGAAAoH9o3y7zzvKpfP13jiSt/VrN6bMbbW158a0uyBwUAVFz+xA0AAFBuLP6y4JHpmx+fmf/v9fFYLNSroWEIAEga4TIAAECq2/hDfNLftjz8Yv7rC7eGEBrWyvifITnDj89p3lC4DAAkjXAZAAAgdb21eOsjL22e8OrmDd/HM2KhX6fs3/TLObFLdlZmskcGAFR4wmUAAICUs2ZD/IlZmx+Znr/gs4IQQtP6GZcMqvzr4yrtX1erMgCQKoTLAAAAKWfs1B+ufeKH7Kww4Kjs3/TL6XN4dkYs2WMCAPhvwmUAAICU07R+5pjhVc7uU6l+Ta3KAECKEi4DAACknGF9KyV7CAAAu+Bv4AAAAAAARCZcBgAAAAAgMuEyAAAAAACRCZcBAAAAAIhMuAwAAAAAQGRZyR4AQEUR67022UMAAAAAKDU6lwEAAAAAiEy4DAAAAABAZLF4PJ7sMQAAAAAAUM7oXAYAAAAAIDLhMgAAAAAAkQmXAQAAAACITLgMAAAAAEBkwmUAAAAAACITLgMAAAAAEJlwGQAAAACAyITLAAAAAABEJlwGAAAAACAy4TIAAAAAAJEJlwEAAAAAiEy4DAAAAABAZMJlAAAAAAAiEy4DAAAAABCZcBkAAAAAgMiEywAAAAAARCZcBgAAAAAgMuEyAAAAAACRCZcBAAAAAIhMuAwAAAAAQGTCZQAAAAAAIhMuAwAAAAAQmXAZAAAAAIDIhMsAAAAAAEQmXAYAAAAAIDLhMgAAAAAAkQmXAQAAAACITLgMAAAAAEBkwmUAAAAAACITLgMAAAAAEJlwGQAAAACAyITLAAAAAABEJlwGAAAAACAy4TIAAAAAAJEJlwEAAAAAiEy4DAAAAABAZMJlAAAAAAAiEy4DAAAAABCZcBkAAAAAgMiEywAAAAAARCZcBgAAAAAgMuEyAAAAAACRCZcBAAAAAIhMuAwAAAAAQGTCZQAAAAAAIhMuAwAAAAAQmXAZAAAAAIDIhMsAAAAAAEQmXAYAAAAAIDLhMgAAAAAAkQmXAQAAAACITLgMAAAAAEBkwmUAAAAAACITLgMAAAAAEJlwGQAAAACAyITLAAAAAABEJlwGAAAAACAy4TIAAAAAAJEJlwEAAAAAiEy4DAAAAABAZMJlAAAAAAAiEy4DAAAAABCZcBkAAAAAgMiEywAAAAAARCZcBgAAAAAgMuEyAAAAAACRCZcBAAAAAIhMuAwAAAAAQGTCZQAAAAAAIhMuAwAAAAAQmXAZAAAAAIDIhMsAAAAAAEQmXAYAAAAAIDLhMgAAAAAAkQmXAQAAAACITLgMAAAAAEBkwmUAAAAAACITLgMAAAAAEJlwGQAAAACAyITLAAAAAABEJlwGAAAAACAy4TIAAAAAAJEJlwEAAAAAiEy4DAAAAABAZMJlAAAAAAAiEy4DAAAAABCZcBkAAAAAgMiEywAAAAAARCZcBgAAAAAgMuEyAAAAAACRCZcBAAAAAIhMuAwAAAAAQGTCZQAAAAAAIhMuAwAAAAAQmXAZAAAAAIDIhMsAAAAAAEQmXAYAAAAAIDLhMgAAAAAAkQmXAQAAAACITLgMAAAAAEBkwmUAAAAAACITLgMAAAAAEJlwGQAAAACAyITLAAAAAABEJlwGAAAAACAy4TIAAAAAAJEJlwEAAAAAiEy4DAAAAABAZMJlAAAAAAAiEy4DAAAAABCZcBkAAAAAgMiEywAAAAAARCZcBgAAAAAgMuEyAAAAAACRCZcBAAAAAIhMuAwAAAAAQGTCZQAAAAAAIhMuAwAAAAAQmXAZAAAAAIDIhMsAAAAAAEQmXAYAAAAAIDLhMgAAAAAAkQmXAQAAAACITLgMAAAAAEBkwmUAAAAAACITLgMAAAAAEJlwGQAAAACAyITLAAAAAABEJlwGAAAAACAy4TIAAAAAAJEJlwEAAAAAiEy4DAAAAABAZMJlAAAAAAAiEy4DAAAAABCZcBkAAAAAgMj+P+YWGx+mkf6kAAAAAElFTkSuQmCC;" vertex="1" parent="1">
          <mxGeometry x="-258" y="70" width="1908" height="893" as="geometry" />
        </mxCell>
        <mxCell id="xRJNYcHZeP18kAEXK0vb-2" value="" style="rounded=1;whiteSpace=wrap;html=1;dashed=1;dashPattern=12 12;fillColor=none;strokeColor=#FF3333;strokeWidth=3;" vertex="1" parent="1">
          <mxGeometry x="-160" y="140" width="700" height="320" as="geometry" />
        </mxCell>
        <mxCell id="xRJNYcHZeP18kAEXK0vb-3" value="" style="rounded=1;whiteSpace=wrap;html=1;dashed=1;dashPattern=12 12;fillColor=none;strokeColor=#DADA00;strokeWidth=3;" vertex="1" parent="1">
          <mxGeometry x="390" y="420" width="890" height="330" as="geometry" />
        </mxCell>
        <mxCell id="xRJNYcHZeP18kAEXK0vb-4" value="&lt;font style=&quot;color: rgb(255, 0, 0); font-size: 40px;&quot;&gt;&lt;b style=&quot;&quot;&gt;A&lt;/b&gt;&lt;/font&gt;" style="text;html=1;align=center;verticalAlign=middle;whiteSpace=wrap;rounded=0;" vertex="1" parent="1">
          <mxGeometry x="-120" y="150" width="60" height="50" as="geometry" />
        </mxCell>
        <mxCell id="xRJNYcHZeP18kAEXK0vb-5" value="&lt;font style=&quot;font-size: 40px; color: rgb(218, 218, 0);&quot;&gt;&lt;b&gt;B&lt;/b&gt;&lt;/font&gt;" style="text;html=1;align=center;verticalAlign=middle;whiteSpace=wrap;rounded=0;" vertex="1" parent="1">
          <mxGeometry x="1180" y="440" width="60" height="50" as="geometry" />
        </mxCell>
      </root>
    </mxGraphModel>
  </diagram>
</mxfile>
